<?xml version="1.0" encoding="UTF-8"?>
<svg version="1.1" xmlns="http://www.w3.org/2000/svg" width="500" height="500">
<path d="M0 0 C10.90523866 5.53819855 21.70947974 7.14564668 33.6875 3.8125 C40.17177236 1.64332884 46.18468987 -1.37474856 52.30786133 -4.38256836 C76.07093643 -15.82580866 103.72776308 -17.23296688 128.734375 -8.8503418 C140.69500444 -4.54619571 151.30996811 2.29516055 161.4765625 9.83984375 C165.24554631 12.31366767 168.91394036 13.50432671 173.375 14 C174.15359375 14.09796875 174.9321875 14.1959375 175.734375 14.296875 C183.88500918 14.16470255 189.64758383 11.40166675 196.3125 6.9375 C203.86663797 2.10714953 210.93748862 -1.33069303 219.625 -3.75 C220.45773437 -3.99234375 221.29046875 -4.2346875 222.1484375 -4.484375 C241.09517808 -9.14237767 261.35947799 -4.47257959 277.90625 5.18554688 C282.16668254 7.82411021 285.93532572 10.87334863 289.625 14.25 C290.31851562 14.85199219 291.01203125 15.45398438 291.7265625 16.07421875 C300.82003434 24.44793702 306.55782388 35.71092837 310.625 47.25 C311.10453125 48.55904297 311.10453125 48.55904297 311.59375 49.89453125 C317.47098836 68.9139276 313.71016338 89.29505159 304.82568359 106.60717773 C294.84095831 125.10882346 278.59545701 136.63140724 259.00390625 143.2421875 C255.83089772 144.18858773 252.66712206 144.96239776 249.4375 145.6875 C237.51648542 148.5046156 228.07733778 155.28836224 221.28515625 165.39453125 C217.73095268 171.50776139 215.59027295 178.16178998 213.48828125 184.88671875 C205.16214566 211.35885085 188.48510609 232.31851308 163.82055664 245.47192383 C139.05165669 258.15299832 112.26373455 260.42218868 85.6875 251.9375 C59.50933793 242.48974226 41.6934878 224.83273963 27.84765625 201.21875 C20.86665317 189.69455445 12.17511744 183.24852428 -1 179.9375 C-9.71471641 178.39683333 -17.3954808 179.65953861 -25.9375 181.6875 C-54.10186685 188.23777946 -80.14994864 184.92171355 -105.375 170.25 C-129.16642929 154.66463234 -144.20744251 131.77189631 -150.375 104.25 C-150.5500708 103.47769043 -150.7251416 102.70538086 -150.90551758 101.90966797 C-153.58408761 86.73528321 -152.21502102 69.83037483 -147.375 55.25 C-147.16601074 54.6120752 -146.95702148 53.97415039 -146.74169922 53.31689453 C-138.19392421 27.9040713 -119.24340236 7.18121987 -95.375 -4.75 C-63.57850082 -19.48496303 -30.43369948 -15.69738184 0 0 Z M96.625 5.25 C95.2822968 8.03131377 95.64382241 9.3284267 96.375 12.375 C97.42986051 15.51126114 97.42986051 15.51126114 100.625 17.25 C103.58269177 17.75010524 103.58269177 17.75010524 106.625 17.25 C109.00219693 15.37498069 109.00219693 15.37498069 110.625 13.25 C106.17 13.745 106.17 13.745 101.625 14.25 C99.625 11.25 99.625 11.25 100 8.5625 C100.20625 7.799375 100.4125 7.03625 100.625 6.25 C104.32041586 5.29975021 106.92958414 5.29975021 110.625 6.25 C108.35525981 3.45647362 107.25012706 2.34116436 103.625 1.8125 C100.31458354 2.29526907 98.9340351 2.85544508 96.625 5.25 Z M115.625 2.25 C115.45605557 3.99978157 115.28993691 5.74983612 115.125 7.5 C115.0321875 8.47453125 114.939375 9.4490625 114.84375 10.453125 C114.66699832 12.71302153 114.625 14.98320193 114.625 17.25 C115.615 17.25 116.605 17.25 117.625 17.25 C117.625 12.3 117.625 7.35 117.625 2.25 C116.965 2.25 116.305 2.25 115.625 2.25 Z M127.625 3.25 C126.61767601 5.18370231 125.61936712 7.12210306 124.625 9.0625 C124.068125 10.14144531 123.51125 11.22039062 122.9375 12.33203125 C121.41989381 15.17273466 121.41989381 15.17273466 121.625 18.25 C125.09662014 17.09279329 125.75656927 16.3074321 127.625 13.25 C128.33933121 10.60065178 128.33933121 10.60065178 128.625 8.25 C130.275 9.9 131.925 11.55 133.625 13.25 C133.480625 11.97125 133.33625 10.6925 133.1875 9.375 C133.06568359 8.29605469 133.06568359 8.29605469 132.94140625 7.1953125 C132.71207039 5.17595684 132.71207039 5.17595684 131.625 3.25 C130.305 3.25 128.985 3.25 127.625 3.25 Z M78.6875 5.4375 C77.30543881 7.79513379 76.8204102 9.51425721 76.625 12.25 C77.68899073 16.06263347 78.2501651 17.00011007 81.625 19.25 C84.5399255 19.8338196 84.5399255 19.8338196 87.625 19.25 C90.98844489 16.76397551 92.42557749 15.33574477 93.1875 11.1875 C92.8031341 8.2116416 92.8031341 8.2116416 91.125 5.875 C87.24640005 3.35391004 82.81748284 2.90622019 78.6875 5.4375 Z M62.625 9.25 C62.37469023 11.83380177 62.37469023 11.83380177 62.625 14.25 C65.595 15.24 68.565 16.23 71.625 17.25 C71.625 17.91 71.625 18.57 71.625 19.25 C69.975 19.58 68.325 19.91 66.625 20.25 C66.625 20.91 66.625 21.57 66.625 22.25 C70.09 21.755 70.09 21.755 73.625 21.25 C74.62717064 17.66672247 74.62717064 17.66672247 73.625 14.25 C71.73735097 13.56527335 71.73735097 13.56527335 69.5625 13.125 C68.82902344 12.95742187 68.09554687 12.78984375 67.33984375 12.6171875 C66.77394531 12.49601562 66.20804688 12.37484375 65.625 12.25 C65.625 11.59 65.625 10.93 65.625 10.25 C67.605 10.25 69.585 10.25 71.625 10.25 C71.295 9.26 70.965 8.27 70.625 7.25 C66.90900809 7.04913557 65.85291555 7.0980563 62.625 9.25 Z M140.625 10.25 C139.32866379 11.31645115 139.32866379 11.31645115 139.5625 13.8125 C139.583125 14.616875 139.60375 15.42125 139.625 16.25 C140.615 16.745 140.615 16.745 141.625 17.25 C141.955 15.27 142.285 13.29 142.625 11.25 C141.965 10.92 141.305 10.59 140.625 10.25 Z M133.625 13.25 C133.295 15.23 132.965 17.21 132.625 19.25 C133.615 19.25 134.605 19.25 135.625 19.25 C135.295 17.27 134.965 15.29 134.625 13.25 C134.295 13.25 133.965 13.25 133.625 13.25 Z M138.625 16.25 C139.625 20.25 139.625 20.25 139.625 20.25 Z M142.625 19.25 C142.625 19.91 142.625 20.57 142.625 21.25 C143.945 20.92 145.265 20.59 146.625 20.25 C145.305 19.92 143.985 19.59 142.625 19.25 Z M-60.6875 32.8125 C-65.91249026 40.53897285 -68.9354902 50.07730963 -70.375 59.25 C-70.48585938 59.95640625 -70.59671875 60.6628125 -70.7109375 61.390625 C-72.98463813 79.45732734 -72.38798196 99.22589064 -63.625 115.5 C-58.87811982 121.30174244 -53.57665817 126.65782807 -45.82299805 127.54052734 C-42.90237096 127.58989903 -39.98357487 127.62130478 -37.0625 127.625 C-36.05509766 127.64949219 -35.04769531 127.67398438 -34.00976562 127.69921875 C-25.88824551 127.73096411 -20.42167659 126.22897267 -14.5625 120.5 C-9.60633244 113.13655106 -8.15498952 106.13213235 -9.375 97.25 C-10.92132155 92.54740071 -12.62089623 88.61602772 -16.58203125 85.53125 C-21.13131781 83.44430456 -25.84271147 83.4023091 -30.78125 82.97265625 C-34.74551429 82.17549441 -36.51983313 81.05722564 -39.375 78.25 C-40.57772819 75.84454362 -40.47571472 74.30003047 -40.4375 71.625 C-40.42847656 70.80773437 -40.41945313 69.99046875 -40.41015625 69.1484375 C-40.39855469 68.52195313 -40.38695313 67.89546875 -40.375 67.25 C-39.20582031 67.20101562 -38.03664062 67.15203125 -36.83203125 67.1015625 C-35.28383196 67.02649829 -33.73565599 66.95095205 -32.1875 66.875 C-31.03411133 66.82859375 -31.03411133 66.82859375 -29.85742188 66.78125 C-25.66531856 66.56534768 -22.163472 66.24240178 -18.375 64.25 C-16.41336275 61.75337078 -16.36707998 60.44008039 -16.5 57.25 C-17.51759618 53.76109881 -18.52512533 52.46656919 -21.375 50.25 C-25.40594369 48.33187653 -29.2776406 47.70199095 -33.6875 47.125 C-34.94175781 46.95742187 -36.19601563 46.78984375 -37.48828125 46.6171875 C-38.44089844 46.49601562 -39.39351562 46.37484375 -40.375 46.25 C-40.045 44.93 -39.715 43.61 -39.375 42.25 C-37.51294922 42.30220703 -37.51294922 42.30220703 -35.61328125 42.35546875 C-33.97136774 42.38361584 -32.32943954 42.41091501 -30.6875 42.4375 C-29.87087891 42.46263672 -29.05425781 42.48777344 -28.21289062 42.51367188 C-23.42846088 42.57178236 -20.25491794 42.38760622 -16.375 39.25 C-15.19887805 37.46328929 -15.19887805 37.46328929 -15.375 35.25 C-17.06113279 29.96678391 -19.85513123 27.91219593 -24.4375 25.23046875 C-36.69685369 19.02664259 -52.10705158 22.68369998 -60.6875 32.8125 Z M165.546875 44.07421875 C158.74554799 51.34706633 157.12932417 57.78049743 157.20288086 67.69897461 C158.0222696 91.17110374 168.56243676 115.25458372 184.625 132.25 C190.75530489 137.95661211 198.17782408 140.59421269 206.53979492 140.45288086 C215.12792404 139.61729541 226.23881232 134.03344637 232.625 128.25 C237.28946672 122.2528285 238.44613797 115.65180703 237.625 108.25 C235.43475165 100.03969761 231.59708014 93.56102844 224.1875 89.25 C218.56468868 87.671667 214.44872954 88.92597359 209.125 90.875 C204.91751816 92.32042743 201.97916532 92.58974318 197.625 91.25 C194.50594953 88.67339309 192.9068632 87.0955896 191.625 83.25 C192.12890625 81.28125 192.12890625 81.28125 193.625 79.25 C195.9373341 77.94340229 198.14681957 76.81983623 200.5625 75.75 C206.55440632 73.1713387 206.55440632 73.1713387 210.625 68.25 C210.55093073 64.69467489 210.03716766 62.81482235 207.9375 59.9375 C205.05461122 57.83377035 203.171487 57.58089233 199.625 57.25 C196.34056937 57.76385741 196.34056937 57.76385741 193.0625 58.6875 C189.11971662 59.72311919 185.7085008 60.44010711 181.625 60.25 C181.625 59.26 181.625 58.27 181.625 57.25 C182.64980469 56.87488281 183.67460937 56.49976563 184.73046875 56.11328125 C186.09141401 55.59706063 187.45207637 55.08009374 188.8125 54.5625 C189.82280273 54.19608398 189.82280273 54.19608398 190.85351562 53.82226562 C195.40509808 52.06824116 198.47476162 50.1253416 201.625 46.25 C201.78386673 42.35776518 201.1502277 40.83889166 198.5625 37.9375 C188.24526551 32.01057806 173.99348779 36.65961692 165.546875 44.07421875 Z M36.359375 51.76953125 C31.1939003 58.16931857 26.73635577 65.11728655 22.16943359 71.94775391 C16.29774655 80.70052166 10.23735262 88.87188988 3.01953125 96.58984375 C-3.38609905 103.70604968 -9.53854975 111.18573571 -10.875 120.875 C-10.35696108 124.37176268 -9.65534462 125.62873274 -7.12255859 128.01025391 C-3.46346411 130.60607422 0.82488233 131.77786515 5.0625 133.125 C6.4556543 133.60453125 6.4556543 133.60453125 7.87695312 134.09375 C14.66498154 136.32183187 14.66498154 136.32183187 21.625 135.25 C32.37389996 125.2510233 31.86834234 106.92950431 33.625 93.25 C41.82172131 93.12463838 41.82172131 93.12463838 45.625 95.25 C46.77921113 98.71263338 46.50285566 99.18418827 45.11328125 102.390625 C44.769021 103.20684326 44.42476074 104.02306152 44.07006836 104.86401367 C43.6963208 105.73388916 43.32257324 106.60376465 42.9375 107.5 C35.77935366 123.48212819 35.77935366 123.48212819 34.70703125 140.5234375 C36.7121942 144.29485037 40.78713859 145.04365467 44.625 146.25 C45.54796875 146.61996094 46.4709375 146.98992187 47.421875 147.37109375 C54.81740646 150.40709003 54.81740646 150.40709003 62.625 150.25 C68.43617504 145.31319157 70.95351959 139.76311974 71.625 132.25 C71.6207109 128.59640232 71.44704114 124.96022405 71.25 121.3125 C71.20617187 120.36181641 71.16234375 119.41113281 71.1171875 118.43164062 C70.92010262 114.45983293 70.67032736 110.57244635 70.11621094 106.63061523 C69.43944695 101.36714837 69.45173103 96.11248791 69.4140625 90.8125 C69.38600705 88.59634661 69.35734268 86.38020087 69.328125 84.1640625 C69.2868455 80.70149853 69.24991711 77.23907939 69.22363281 73.77636719 C69.19594784 70.41312006 69.15009751 67.0505024 69.1015625 63.6875 C69.09830963 62.66019775 69.09505676 61.63289551 69.09170532 60.57446289 C68.97129788 53.49084567 68.36301247 47.30092818 63.4375 41.8125 C51.94966199 35.43036777 43.84269585 43.15906425 36.359375 51.76953125 Z M101.625 65.25 C96.11966941 72.74336663 95.91601865 79.1345255 96.625 88.25 C97.45362324 91.38479154 98.67846103 93.67024956 100.625 96.25 C101.05296875 96.8171875 101.4809375 97.384375 101.921875 97.96875 C107.5125029 104.3086373 115.39943632 108.07114652 122.625 112.25 C124.44989368 113.31232313 126.2650367 114.39189664 128.0625 115.5 C128.76246094 115.91765625 129.46242188 116.3353125 130.18359375 116.765625 C131.625 118.25 131.625 118.25 131.84765625 120.921875 C131.77417969 121.69015625 131.70070313 122.4584375 131.625 123.25 C127.73046569 122.2962365 124.53381703 121.31317956 121.125 119.1875 C117.59928701 117.10662262 114.7962744 116.25 110.625 116.25 C106.24008204 117.57701464 103.27743623 119.56494196 100.125 122.875 C97.69527361 128.34188438 97.65945554 133.08165561 99.40234375 138.80078125 C103.49452379 148.16473771 111.20502919 154.84277916 120.6171875 158.59375 C132.36810994 162.43451842 146.27210206 161.02142769 157.3125 155.625 C164.40708119 151.11182064 169.30245743 144.75228899 171.22265625 136.58203125 C172.63678174 128.38559516 170.77663199 120.92845889 166.1171875 114.01171875 C158.64933162 105.06765881 149.42634502 99.85149314 138.9375 95.125 C122.2934947 87.58698941 122.2934947 87.58698941 119.625 82.25 C119.49084528 79.5776379 119.58181459 76.92749512 119.625 74.25 C121.93733082 73.93620544 124.24984472 73.62388751 126.5625 73.3125 C127.24675049 73.2196875 127.93100098 73.126875 128.63598633 73.03125 C132.35741656 72.53195335 136.0739014 72.0950049 139.8125 71.75 C143.14634248 71.31277476 144.83501444 70.92279648 147.625 69.25 C149.19435594 66.11128812 148.97701103 63.71144178 148.625 60.25 C145.59567501 55.99001173 142.6043018 54.5922256 137.6875 53.51171875 C125.34262471 51.94522889 110.59791728 56.54099205 101.625 65.25 Z " fill="#5CE0E5" transform="translate(164.375,161.75)"/>
<path d="M0 0 C5.77074097 4.95531019 8.4896519 10.99012204 9.4375 18.4375 C8.45751836 26.41735048 5.20484488 31.64799083 -1.0625 36.625 C-6.12042852 40.21449766 -10.91874857 40.79964507 -17 40 C-24.37261512 37.78582176 -29.42778676 34.01632806 -33.3125 27.3125 C-35.80248482 21.91583902 -36.11791099 16.42547057 -34.26953125 10.76171875 C-31.15856668 4.01917922 -26.20307645 -1.02641928 -19.1875 -3.6875 C-11.82574959 -4.73917863 -6.34529619 -3.98343594 0 0 Z " fill="#5DE0E5" transform="translate(188,116)"/>
<path d="M0 0 C5.47762213 4.96208123 8.94938457 9.78238373 9.375 17.25 C9.1931231 23.32266754 7.50777218 28.59314421 3.05859375 32.86328125 C-3.6581161 38.04615681 -9.58595861 38.92896142 -18 38 C-24.19276617 35.74348553 -27.64461705 31.49062665 -31 26 C-32.85755407 20.42733779 -32.72152545 14.34495773 -31 8.75 C-23.47647453 -1.59484752 -11.89195525 -7.04190291 0 0 Z " fill="#5FDFE4" transform="translate(436,335)"/>
<path d="M0 0 C4.01640598 1.71526652 7.14844794 3.65170924 9.5 7.375 C10.44492665 12.33586493 10.68516067 15.68043131 8.3125 20.25 C5.06418802 24.11285749 2.48996581 25.550199 -2.3125 27 C-7.35295365 27 -10.30811701 25.3683247 -14 22 C-16.3623613 18.13431787 -17.03086431 15.8950651 -16.875 11.375 C-15.70975893 6.88049874 -14.40641516 4.16531542 -10.8125 1.1875 C-7.09885122 -0.38048504 -3.92156716 -0.76992236 0 0 Z " fill="#5CE1E5" transform="translate(307,109)"/>
<path d="M0 0 C3.12861627 6.70417773 1.9560238 13.65449406 -0.25 20.5625 C-2 24 -2 24 -4.25 25.6875 C-8.27844865 26.14527826 -10.53842454 25.02469508 -14 23 C-15.59367692 20.18371124 -16.15880274 18.72611979 -15.4609375 15.53515625 C-8.43791967 -0.45610377 -8.43791967 -0.45610377 0 0 Z " fill="#5EE0E4" transform="translate(220,217)"/>
<path d="M0 0 C2.13832679 3.20749019 3.27242366 6.20437039 4.625 9.8125 C7.25335694 16.62969646 10.53305834 22.80263872 14.265625 29.07421875 C15.61656 31.3531609 16.86087892 33.61133284 18 36 C17.34 36 16.68 36 16 36 C16 35.34 16 34.68 16 34 C14.4221875 34.0309375 14.4221875 34.0309375 12.8125 34.0625 C9 33 9 33 7.66796875 31.17578125 C6.86245148 29.58899306 6.06611335 27.99752316 5.27734375 26.40234375 C0.60032523 17.60611627 -8.56431443 13.5044923 -17 9 C-14 7 -14 7 -12 7 C-12 7.66 -12 8.32 -12 9 C-11.34 9 -10.68 9 -10 9 C-9.67 8.34 -9.34 7.68 -9 7 C-9 7.99 -9 8.98 -9 10 C-8.0409375 10.1546875 -8.0409375 10.1546875 -7.0625 10.3125 C-6.0415625 10.6528125 -6.0415625 10.6528125 -5 11 C-4.67 11.99 -4.34 12.98 -4 14 C-3.01 14.33 -2.02 14.66 -1 15 C-0.37470103 9.9752761 0.13012092 5.07471573 0 0 Z " fill="#6BD9DC" transform="translate(325,251)"/>
<path d="M0 0 C6.36316898 0.90902414 11.6008083 3.03988624 17.3125 5.875 C18.00601562 6.21466797 18.69953125 6.55433594 19.4140625 6.90429688 C23.21488966 8.84161169 26.15318288 10.73604001 29 14 C26.03 13.505 26.03 13.505 23 13 C23 12.34 23 11.68 23 11 C21.68 11.33 20.36 11.66 19 12 C19 11.34 19 10.68 19 10 C16.69 9.67 14.38 9.34 12 9 C11.7018576 12.7763932 11.7018576 12.7763932 13 15 C12.34 15 11.68 15 11 15 C11.66229729 18.0895946 11.66229729 18.0895946 13.9375 19.125 C14.618125 19.41375 15.29875 19.7025 16 20 C16.66 20.33 17.32 20.66 18 21 C17.34 23.97 16.68 26.94 16 30 C15.01 29.67 14.02 29.34 13 29 C12.11917378 26.28681956 11.42123771 23.71116483 10.8125 20.9375 C10.63525391 20.17888672 10.45800781 19.42027344 10.27539062 18.63867188 C9.83863033 16.76178303 9.41780844 14.8811984 9 13 C7.68 13 6.36 13 5 13 C4.34 14.65 3.68 16.3 3 18 C2.67 18 2.34 18 2 18 C2 15.36 2 12.72 2 10 C4.97 10.495 4.97 10.495 8 11 C8.33 9.68 8.66 8.36 9 7 C8.3503125 6.57847656 7.700625 6.15695313 7.03125 5.72265625 C5.77828125 4.90087891 5.77828125 4.90087891 4.5 4.0625 C3.6646875 3.51722656 2.829375 2.97195312 1.96875 2.41015625 C1.3190625 1.94480469 0.669375 1.47945312 0 1 C0 0.67 0 0.34 0 0 Z " fill="#6ADADF" transform="translate(287,152)"/>
<path d="M0 0 C5.31939231 1.32984808 10.32271932 3.86539254 14 8 C14.2265625 10.69921875 14.2265625 10.69921875 14 13 C11 14 11 14 8.43359375 12.8203125 C7.44488281 12.26085937 6.45617187 11.70140625 5.4375 11.125 C-0.12782969 8.19659266 -4.74042906 7.02769722 -11 7 C-11 6.34 -11 5.68 -11 5 C-9.1128125 4.87625 -9.1128125 4.87625 -7.1875 4.75 C-3.66188788 4.33442857 -3.66188788 4.33442857 -1 1.9375 C-0.67 1.298125 -0.34 0.65875 0 0 Z " fill="#69D9DE" transform="translate(283,272)"/>
<path d="M0 0 C2.31 0.33 4.62 0.66 7 1 C8.56640979 5.79712998 9.58956501 9.89043662 9 15 C7.18641675 17.12920686 5.64627564 17.89934193 2.89013672 18.32861328 C0.34138937 18.52011403 -2.19497441 18.62145429 -4.75 18.6875 C-5.63816406 18.72166016 -6.52632812 18.75582031 -7.44140625 18.79101562 C-9.62747803 18.87328714 -11.81315951 18.94250172 -14 19 C-9.82690836 20.79166725 -5.85670669 21.66879638 -1.40234375 22.4375 C0.98516288 22.99652594 2.86284947 23.81543619 5 25 C4.67 25.66 4.34 26.32 4 27 C3.071875 26.54625 2.14375 26.0925 1.1875 25.625 C-2.94272733 23.8343902 -7.11974397 23.1345659 -11.546875 22.4296875 C-14 22 -14 22 -17 21 C-16.67 19.35 -16.34 17.7 -16 16 C-14.12054688 16.03480469 -14.12054688 16.03480469 -12.203125 16.0703125 C-10.5520893 16.08907427 -8.90104715 16.10727403 -7.25 16.125 C-6.425 16.14175781 -5.6 16.15851563 -4.75 16.17578125 C-3.95078125 16.18222656 -3.1515625 16.18867188 -2.328125 16.1953125 C-1.22839355 16.21102295 -1.22839355 16.21102295 -0.10644531 16.22705078 C2.33381813 15.96401821 3.91538146 15.27912011 6 14 C7.10546369 12.25007285 7.10546369 12.25007285 7 10 C5.34826557 5.82719722 3.33161397 2.98696425 0 0 Z " fill="#73D5D5" transform="translate(141,187)"/>
<path d="M0 0 C1.10868317 3.32604951 1.54177532 6.53058454 2 10 C4.97 10.66 7.94 11.32 11 12 C11 12.33 11 12.66 11 13 C10.11248047 13.07347656 10.11248047 13.07347656 9.20703125 13.1484375 C4.25852764 13.57464285 4.25852764 13.57464285 -0.4375 15.0625 C-4.52523085 16.55801129 -8.69199645 16.150571 -13 16 C-13 15.67 -13 15.34 -13 15 C-9.7 14.34 -6.4 13.68 -3 13 C-3 11.02 -3 9.04 -3 7 C-5.64 6.67 -8.28 6.34 -11 6 C-11 4.68 -11 3.36 -11 2 C-8 2 -5 2 -2 2 C-1.34 1.34 -0.68 0.68 0 0 Z " fill="#69DADD" transform="translate(241,169)"/>
<path d="M0 0 C0.33 0.66 0.66 1.32 1 2 C0.34 2 -0.32 2 -1 2 C-1 2.66 -1 3.32 -1 4 C-1.99 4.495 -1.99 4.495 -3 5 C-3.33 5.99 -3.66 6.98 -4 8 C-2.68 8.66 -1.36 9.32 0 10 C-2.06081361 10.50690584 -4.12373526 11.00524619 -6.1875 11.5 C-7.33605469 11.7784375 -8.48460937 12.056875 -9.66796875 12.34375 C-12.56818829 12.91495385 -15.06096385 13.13283779 -18 13 C-18.33 11.68 -18.66 10.36 -19 9 C-14.01688717 6.46314256 -9.00611662 4.0723611 -3.8828125 1.83203125 C-2.57382265 1.25357723 -1.28001984 0.64000992 0 0 Z " fill="#69D9DC" transform="translate(364,210)"/>
<path d="M0 0 C0.928125 0.20625 1.85625 0.4125 2.8125 0.625 C2.8125 1.285 2.8125 1.945 2.8125 2.625 C1.1625 2.955 -0.4875 3.285 -2.1875 3.625 C-2.1875 5.275 -2.1875 6.925 -2.1875 8.625 C-1.1975 8.625 -0.2075 8.625 0.8125 8.625 C0.8125 7.965 0.8125 7.305 0.8125 6.625 C2.4625 6.955 4.1125 7.285 5.8125 7.625 C5.855221 9.29111905 5.85313832 10.95882885 5.8125 12.625 C4.09665503 14.34084497 1.78049522 14.03476422 -0.5625 14.25 C-1.53960937 14.34539062 -2.51671875 14.44078125 -3.5234375 14.5390625 C-6.1875 14.625 -6.1875 14.625 -9.1875 13.625 C-8.8575 12.305 -8.5275 10.985 -8.1875 9.625 C-6.7025 10.615 -6.7025 10.615 -5.1875 11.625 C-1.11259248 11.96457563 0.34251271 11.93832486 3.8125 9.625 C1.1725 9.955 -1.4675 10.285 -4.1875 10.625 C-5.75 8.9375 -5.75 8.9375 -7.1875 6.625 C-7.0625 4 -7.0625 4 -6.1875 1.625 C-3.1875 -0.375 -3.1875 -0.375 0 0 Z " fill="#6ED7DD" transform="translate(270.1875,166.375)"/>
<path d="M0 0 C3.12861627 6.70417773 1.9560238 13.65449406 -0.25 20.5625 C-2 24 -2 24 -4.4375 25.625 C-7.39319538 26.05754079 -8.54840099 25.63439934 -11 24 C-7.04 23.505 -7.04 23.505 -3 23 C-3 21.35 -3 19.7 -3 18 C-2.34 18 -1.68 18 -1 18 C-1 12.72 -1 7.44 -1 2 C-1.99 2.33 -2.98 2.66 -4 3 C-4.73323796 5.01508358 -4.73323796 5.01508358 -5 7 C-5.66 7 -6.32 7 -7 7 C-7.33 7.66 -7.66 8.32 -8 9 C-8.66 9 -9.32 9 -10 9 C-10.33 9.99 -10.66 10.98 -11 12 C-11.66 12 -12.32 12 -13 12 C-10.41754863 5.04724631 -8.22867594 -0.44479329 0 0 Z " fill="#76D4D7" transform="translate(220,217)"/>
<path d="M0 0 C2.4375 0.375 2.4375 0.375 4.4375 2.375 C4.75 5.875 4.75 5.875 4.4375 9.375 C1.4375 11.375 1.4375 11.375 -1.0625 11.125 C-3.5625 10.375 -3.5625 10.375 -6.5625 8.375 C-5.80312915 4.12252323 -4.60430312 0.67380046 0 0 Z " fill="#5CDFE6" transform="translate(249.5625,167.625)"/>
<path d="M0 0 C6.625 -0.25 6.625 -0.25 10 2 C6.71023192 3.09658936 5.28696233 2.79953138 2 2 C-0.49976203 6.92661433 -0.59621261 12.02749668 -1 17.4375 C-1.83665543 28.6006525 -1.83665543 28.6006525 -4 34 C-3.01 34.33 -2.02 34.66 -1 35 C-1.33 35.99 -1.66 36.98 -2 38 C-4.97 38.495 -4.97 38.495 -8 39 C-7.73445312 38.05382812 -7.46890625 37.10765625 -7.1953125 36.1328125 C-4.93876793 27.7865864 -3.40531431 19.65321455 -2.68408203 11.02978516 C-2.32829569 7.01293026 -1.74328732 3.65225898 0 0 Z " fill="#77D5D9" transform="translate(198,254)"/>
<path d="M0 0 C0.66 0.33 1.32 0.66 2 1 C1.67 1.99 1.34 2.98 1 4 C0.38757271 11.90131604 -0.19717866 19.57667731 5 26 C10.0621169 31.30080218 15.68675453 35.326839 22 39 C20 40 20 40 18.08203125 39.50390625 C11.8699109 36.9271059 7.82913601 33.54996797 4 28 C3.67 27.01 3.34 26.02 3 25 C2.34 25 1.68 25 1 25 C-1.74373036 15.96855422 -2.96636337 9.08448781 0 0 Z " fill="#70D5D5" transform="translate(261,232)"/>
<path d="M0 0 C1.26811998 3.87244691 0.36971446 5.90524844 -1.16796875 9.640625 C-2.42658822 13.20966801 -2.97093906 16.85434904 -3.5703125 20.58203125 C-4 23 -4 23 -5 26 C-5.08397157 28.35680213 -5.10728187 30.71594081 -5.09765625 33.07421875 C-5.0962413 33.7580513 -5.09482635 34.44188385 -5.09336853 35.1464386 C-5.08777876 37.32683722 -5.07522822 39.50713251 -5.0625 41.6875 C-5.05748367 43.16731622 -5.052921 44.64713406 -5.04882812 46.12695312 C-5.03781271 49.75133557 -5.02055512 53.3756577 -5 57 C-5.33 57 -5.66 57 -6 57 C-10.31238494 37.99685832 -6.87254155 17.86073118 0 0 Z " fill="#7ED4D7" transform="translate(20,209)"/>
<path d="M0 0 C2.475 0.99 2.475 0.99 5 2 C4.88914193 7.1901733 4.80080893 10.89618228 1.6875 15.1875 C-1 17 -1 17 -3.3125 16.8125 C-3.869375 16.544375 -4.42625 16.27625 -5 16 C-4.34 15.46375 -3.68 14.9275 -3 14.375 C-0.74106848 12.11790102 -0.74106848 12.11790102 -0.5625 8.9375 C-0.7650975 6.04826484 -0.7650975 6.04826484 -2.25 4.25 C-4.09419396 2.9327186 -5.93341837 1.92639866 -8 1 C-6.865625 1.020625 -5.73125 1.04125 -4.5625 1.0625 C-1.18424326 1.41577477 -1.18424326 1.41577477 0 0 Z " fill="#65DADE" transform="translate(257,164)"/>
<path d="M0 0 C0.99 0.33 1.98 0.66 3 1 C5.16420681 5.80934848 5.56132858 10.80520691 6 16 C7.32 16.33 8.64 16.66 10 17 C9.65066406 17.50789063 9.30132812 18.01578125 8.94140625 18.5390625 C6.19475288 22.69405656 4.3818364 25.90884805 4 31 C2.35 31 0.7 31 -1 31 C0.83012314 25.37890748 0.83012314 25.37890748 2.05078125 22.65625 C4.76738163 15.05424071 3.29009587 7.12854104 0 0 Z " fill="#77D6D6" transform="translate(151,251)"/>
<path d="M0 0 C1.94302301 4.95350927 -0.6475094 9.00246731 -2.51953125 13.6484375 C-4.41328618 17.93561885 -6.56862898 21.99599751 -9 26 C-9.66 24.68 -10.32 23.36 -11 22 C-10.01 21.67 -9.02 21.34 -8 21 C-8.33 18.69 -8.66 16.38 -9 14 C-7.68 13.67 -6.36 13.34 -5 13 C-4.67 10.69 -4.34 8.38 -4 6 C-3.01 5.67 -2.02 5.34 -1 5 C-0.67 3.35 -0.34 1.7 0 0 Z " fill="#60DFE8" transform="translate(475,248)"/>
<path d="M0 0 C1.19121866 3.57365598 0.68611885 4.71213287 -0.36328125 8.265625 C-2.25176861 15.39823863 -2.76960571 22.40426188 -3.1875 29.75 C-3.26935547 31.03132813 -3.35121094 32.31265625 -3.43554688 33.6328125 C-3.63357933 36.75473586 -3.82154669 39.8769069 -4 43 C-4.66 43 -5.32 43 -6 43 C-6.02888514 39.85418577 -6.04675923 36.70840531 -6.0625 33.5625 C-6.07087891 32.66466797 -6.07925781 31.76683594 -6.08789062 30.84179688 C-6.09111328 29.98779297 -6.09433594 29.13378906 -6.09765625 28.25390625 C-6.10551147 27.06776733 -6.10551147 27.06776733 -6.11352539 25.85766602 C-6 24 -6 24 -5 23 C-4.67406877 20.65033216 -4.3897657 18.29484369 -4.125 15.9375 C-3.43895191 10.23193439 -2.3586188 5.25328732 0 0 Z " fill="#76D6DA" transform="translate(97,206)"/>
<path d="M0 0 C1.08927309 3.26781928 0.90725612 3.96094428 0 7.125 C-1.21518826 12.05866432 -0.79281691 16.00525344 0 21 C3.63 22.32 7.26 23.64 11 25 C11 25.33 11 25.66 11 26 C4.375 26.125 4.375 26.125 1 25 C1 24.34 1 23.68 1 23 C0.01 22.67 -0.98 22.34 -2 22 C-4.28858032 18.74780692 -4.24297206 15.887553 -4 12 C-3.66666667 10.66666667 -3.33333333 9.33333333 -3 8 C-3.04125 6.96875 -3.0825 5.9375 -3.125 4.875 C-3.08375 3.92625 -3.0425 2.9775 -3 2 C-2.01 1.34 -1.02 0.68 0 0 Z " fill="#70D7DA" transform="translate(201,283)"/>
<path d="M0 0 C5.34634427 1.40903653 10.6246929 2.82891785 15.8125 4.75 C19.56338622 6.02262211 22.13969468 6.25684359 26 5 C28.32219658 3.55269907 28.32219658 3.55269907 30 2 C30.1875 5.375 30.1875 5.375 30 9 C29.01 9.66 28.02 10.32 27 11 C26.01 10.67 25.02 10.34 24 10 C24.33 9.67 24.66 9.34 25 9 C24.113125 8.9175 23.22625 8.835 22.3125 8.75 C14.66535988 7.67095569 7.11099192 4.94749293 0 2 C0 1.34 0 0.68 0 0 Z " fill="#6CD8D8" transform="translate(160,291)"/>
<path d="M0 0 C0.66 0.33 1.32 0.66 2 1 C1.67 2.98 1.34 4.96 1 7 C-0.8125 7.6875 -0.8125 7.6875 -3 8 C-3.37125 7.525625 -3.7425 7.05125 -4.125 6.5625 C-7.08291423 4.09757147 -10.49460923 4.42538312 -14.1875 4.3125 C-14.93708984 4.27833984 -15.68667969 4.24417969 -16.45898438 4.20898438 C-18.30546838 4.12665706 -20.15270994 4.06164719 -22 4 C-22 3.67 -22 3.34 -22 3 C-21.40461426 2.94465088 -20.80922852 2.88930176 -20.19580078 2.83227539 C-17.50512785 2.57981135 -14.81507714 2.32123184 -12.125 2.0625 C-11.18785156 1.97548828 -10.25070312 1.88847656 -9.28515625 1.79882812 C-8.38925781 1.71181641 -7.49335938 1.62480469 -6.5703125 1.53515625 C-5.32918701 1.41732788 -5.32918701 1.41732788 -4.06298828 1.29711914 C-1.9418334 1.10222637 -1.9418334 1.10222637 0 0 Z " fill="#6EDBDF" transform="translate(310,231)"/>
<path d="M0 0 C4.02687699 0.7653212 7.13219075 2.75449707 10.19921875 5.41796875 C12.6194633 9.25002262 12.53596556 12.95607346 12.19921875 17.41796875 C11.53921875 18.07796875 10.87921875 18.73796875 10.19921875 19.41796875 C9.35823219 15.39992184 9.1451693 12.39993332 10.19921875 8.41796875 C9.53921875 8.41796875 8.87921875 8.41796875 8.19921875 8.41796875 C7.86921875 7.42796875 7.53921875 6.43796875 7.19921875 5.41796875 C3.89686089 3.08780035 0.89715425 3.20714407 -3.05078125 3.29296875 C-4.66726563 3.32003906 -4.66726563 3.32003906 -6.31640625 3.34765625 C-7.13625 3.37085937 -7.95609375 3.3940625 -8.80078125 3.41796875 C-6.12228815 0.31915827 -4.15672472 -0.16135161 0 0 Z " fill="#74D2D3" transform="translate(304.80078125,108.58203125)"/>
<path d="M0 0 C0.33 0.66 0.66 1.32 1 2 C-0.75763672 2.00386719 -0.75763672 2.00386719 -2.55078125 2.0078125 C-12.41965425 2.19375997 -19.72751122 3.04162152 -28 9 C-26.20169703 4.77082517 -24.05174088 3.11818547 -20.0625 0.97265625 C-13.61862361 -1.07393204 -6.67972562 -0.34510638 0 0 Z " fill="#74D7D7" transform="translate(134,183)"/>
<path d="M0 0 C0.33 0 0.66 0 1 0 C1.12375 1.134375 1.2475 2.26875 1.375 3.4375 C1.684375 5.2009375 1.684375 5.2009375 2 7 C2.66 7.33 3.32 7.66 4 8 C4.33 6.35 4.66 4.7 5 3 C5.66 3 6.32 3 7 3 C6.01 6.3 5.02 9.6 4 13 C4.66 13.33 5.32 13.66 6 14 C5.01 14 4.02 14 3 14 C3 13.01 3 12.02 3 11 C2.34 11 1.68 11 1 11 C0.34 12.32 -0.32 13.64 -1 15 C-1.99 14.67 -2.98 14.34 -4 14 C-4 12.35 -4 10.7 -4 9 C-3.67 9.99 -3.34 10.98 -3 12 C-2.01 12 -1.02 12 0 12 C0 8.04 0 4.08 0 0 Z " fill="#6BD6DA" transform="translate(282,167)"/>
<path d="M0 0 C0.66 0 1.32 0 2 0 C1.97679687 1.28132812 1.95359375 2.56265625 1.9296875 3.8828125 C1.80241636 14.14802558 2.1227256 23.87612733 4 34 C2 33 2 33 0.88720703 30.34326172 C-0.02700365 26.89824218 -0.22918022 24.06392319 -0.1953125 20.5078125 C-0.18886719 19.30898437 -0.18242187 18.11015625 -0.17578125 16.875 C-0.15902344 15.6375 -0.14226562 14.4 -0.125 13.125 C-0.11597656 11.86429688 -0.10695313 10.60359375 -0.09765625 9.3046875 C-0.07415808 6.2029296 -0.04130334 3.10156348 0 0 Z " fill="#73D5D7" transform="translate(321,216)"/>
<path d="M0 0 C0.66 0.33 1.32 0.66 2 1 C1.505 1.680625 1.01 2.36125 0.5 3.0625 C-1.34127336 6.66832699 -1.3641066 8.99482745 -1 13 C-0.06708246 15.87649576 0.51001756 16.71177504 3.125 18.25 C3.74375 18.4975 4.3625 18.745 5 19 C5 19.99 5 20.98 5 22 C2.22234082 21.3827424 0.47722132 20.63283697 -1.2578125 18.33203125 C-3.8794126 13.59298491 -4.51813952 10.36409296 -3 5 C-1.4375 2.0625 -1.4375 2.0625 0 0 Z " fill="#72D4D4" transform="translate(294,112)"/>
<path d="M0 0 C2.375 1.3125 2.375 1.3125 3 3.3125 C3.12375 3.9725 3.2475 4.6325 3.375 5.3125 C6.36146769 7.30347846 8.97187262 8.25374926 12.375 9.3125 C12.375 10.3025 12.375 11.2925 12.375 12.3125 C8.58310923 10.94660386 5.53118622 9.20795351 2.25 6.875 C1.40179688 6.27816406 0.55359375 5.68132812 -0.3203125 5.06640625 C-2.26809316 3.58411216 -3.95662439 2.09537198 -5.625 0.3125 C-2.625 -0.6875 -2.625 -0.6875 0 0 Z " fill="#68DADA" transform="translate(53.625,322.6875)"/>
<path d="M0 0 C2.35953094 2.35953094 2.49141413 3.77895617 3 7 C2.01 7.33 1.02 7.66 0 8 C0.99 9.98 1.98 11.96 3 14 C1.68 14 0.36 14 -1 14 C-1 13.01 -1 12.02 -1 11 C-2.32 11.33 -3.64 11.66 -5 12 C-4.525625 11.278125 -4.05125 10.55625 -3.5625 9.8125 C-2.04746091 7.08542963 -1.49357476 5.04371105 -1 2 C-0.67 1.34 -0.34 0.68 0 0 Z " fill="#68DDE1" transform="translate(293,168)"/>
<path d="M0 0 C0.33 0 0.66 0 1 0 C1 3.63 1 7.26 1 11 C1.99 11 2.98 11 4 11 C3.814375 11.721875 3.62875 12.44375 3.4375 13.1875 C2.98004693 16.12826973 3.26483643 18.14103058 4 21 C1.21622453 18.59583028 -0.01765406 16.55155842 -1 13 C-1.2897463 8.47271401 -1.44263708 4.32791124 0 0 Z " fill="#6FD7D8" transform="translate(154,126)"/>
<path d="M0 0 C4.97093824 0.41153737 9.44508386 0.79600832 14 3 C14 3.66 14 4.32 14 5 C14.66 5.33 15.32 5.66 16 6 C16 6.66 16 7.32 16 8 C10.18738629 6.26017005 5.16830006 4.1889511 0 1 C0 0.67 0 0.34 0 0 Z " fill="#6DDBDB" transform="translate(288,249)"/>
<path d="M0 0 C2 2 2 2 2.265625 4.21484375 C2.22665417 11.00551084 1.43742165 17.36475901 0 24 C-1.98 24.66 -3.96 25.32 -6 26 C-5.47599609 25.00419922 -5.47599609 25.00419922 -4.94140625 23.98828125 C-4.48636719 23.10527344 -4.03132813 22.22226562 -3.5625 21.3125 C-3.11003906 20.44238281 -2.65757812 19.57226562 -2.19140625 18.67578125 C-0.17493988 14.14699612 0.12177879 10.1076399 0.0625 5.1875 C0.05347656 4.21167969 0.04445313 3.23585938 0.03515625 2.23046875 C0.02355469 1.49441406 0.01195312 0.75835937 0 0 Z " fill="#7AD9DD" transform="translate(335,285)"/>
<path d="M0 0 C2.475 0.495 2.475 0.495 5 1 C5 1.66 5 2.32 5 3 C5.63808594 3.06058594 6.27617187 3.12117187 6.93359375 3.18359375 C7.75988281 3.26738281 8.58617187 3.35117188 9.4375 3.4375 C10.67306641 3.55931641 10.67306641 3.55931641 11.93359375 3.68359375 C14 4 14 4 15 5 C19.3091525 5.38021934 22.9088444 4.2834998 27 3 C26 5 26 5 24 6.125 C16.99800045 8.16724987 11.4808816 7.22492849 4.9453125 4.16796875 C2.96723739 2.98032928 1.54874669 1.69972514 0 0 Z " fill="#79D5D9" transform="translate(159,149)"/>
<path d="M0 0 C0.33 0.99 0.66 1.98 1 3 C-5.7685324 3.10152799 -12.30324864 3.03026944 -19 2 C-19 1.67 -19 1.34 -19 1 C-12.65758005 -0.15316726 -6.43311296 -0.09507063 0 0 Z " fill="#6ED5DD" transform="translate(116,344)"/>
<path d="M0 0 C0.33 3.3 0.66 6.6 1 10 C-2 7 -2 7 -3.5625 4.375 C-4.77912906 1.88809625 -4.77912906 1.88809625 -7 1 C-8.37342831 0.9310528 -9.75002102 0.91532292 -11.125 0.9375 C-13.043125 0.9684375 -13.043125 0.9684375 -15 1 C-14.67 0.34 -14.34 -0.32 -14 -1 C-9.04413531 -2.26968434 -4.57906464 -2.51109996 0 0 Z " fill="#65DBDA" transform="translate(278,164)"/>
<path d="M0 0 C1.32 0.33 2.64 0.66 4 1 C3.01 1.495 3.01 1.495 2 2 C2 2.66 2 3.32 2 4 C2.66 4.33 3.32 4.66 4 5 C3.67 6.32 3.34 7.64 3 9 C2.67 8.34 2.34 7.68 2 7 C-2.64905587 4.45051775 -7.81600584 4.38250831 -13 4 C-13 3.67 -13 3.34 -13 3 C-8.71 3 -4.42 3 0 3 C0 2.01 0 1.02 0 0 Z " fill="#70DCE0" transform="translate(148,242)"/>
<path d="M0 0 C0.99 0.33 1.98 0.66 3 1 C2.40832031 1.42410156 1.81664062 1.84820312 1.20703125 2.28515625 C-3.91833002 6.08946192 -7.58601897 9.60370741 -11 15 C-11.6171875 13.125 -11.6171875 13.125 -12 11 C-10.71034824 9.62437146 -9.37310707 8.29233607 -8 7 C-7.87625 6.29875 -7.7525 5.5975 -7.625 4.875 C-7.41875 4.25625 -7.2125 3.6375 -7 3 C-4 1.8125 -4 1.8125 -1 1 C-0.67 0.67 -0.34 0.34 0 0 Z " fill="#70D9DD" transform="translate(397,312)"/>
<path d="M0 0 C0 0.66 0 1.32 0 2 C-0.66 2 -1.32 2 -2 2 C-2 2.66 -2 3.32 -2 4 C-2.99 4.33 -3.98 4.66 -5 5 C-6.38576923 6.62332967 -7.72641268 8.28724465 -9 10 C-9.66 9.67 -10.32 9.34 -11 9 C-10.67 8.34 -10.34 7.68 -10 7 C-11.32 7.33 -12.64 7.66 -14 8 C-11.72402354 5.50447597 -9.39278822 3.93377014 -6.4375 2.3125 C-5.65246094 1.87550781 -4.86742187 1.43851563 -4.05859375 0.98828125 C-2 0 -2 0 0 0 Z " fill="#67DCDE" transform="translate(374,162)"/>
<path d="M0 0 C-0.33 0.66 -0.66 1.32 -1 2 C-2.37929594 2.45008604 -3.77980709 2.83616626 -5.1875 3.1875 C-10.40005868 4.78624004 -12.93709358 7.61583983 -16 12 C-16.33 11.34 -16.66 10.68 -17 10 C-13.10104167 3.85618687 -8.21082869 -2.98575589 0 0 Z " fill="#6ED4D3" transform="translate(172,114)"/>
<path d="M0 0 C0.66 0.99 1.32 1.98 2 3 C2.99 3.33 3.98 3.66 5 4 C4.09507812 4.58007812 4.09507812 4.58007812 3.171875 5.171875 C-2.82801813 9.07616197 -2.82801813 9.07616197 -8 14 C-7.39816251 11.97954558 -6.72693904 9.97888961 -6 8 C-5.34 7.67 -4.68 7.34 -4 7 C-3.27840576 5.35636866 -2.60648579 3.68949614 -2 2 C-1.34 2 -0.68 2 0 2 C0 1.34 0 0.68 0 0 Z " fill="#6DD9DC" transform="translate(271,217)"/>
<path d="M0 0 C2.31 0.33 4.62 0.66 7 1 C8.5912689 5.873261 9.21192221 9.80790596 9 15 C8.67 15 8.34 15 8 15 C7.76216797 14.00419922 7.76216797 14.00419922 7.51953125 12.98828125 C5.99738146 7.22765912 4.65705759 3.77599264 0 0 Z " fill="#70DADB" transform="translate(141,187)"/>
<path d="M0 0 C0 2.92828926 -0.13970066 5.20402714 -1 8 C-2.8125 9.4375 -2.8125 9.4375 -5 10 C-6.32 9.34 -7.64 8.68 -9 8 C-6.03 5.36 -3.06 2.72 0 0 Z " fill="#69DCE2" transform="translate(48,171)"/>
<path d="M0 0 C2.78478096 3.26491561 3.99473292 6.41569816 5.25 10.5 C5.60578125 11.6240625 5.9615625 12.748125 6.328125 13.90625 C6.96531293 16.84027816 7.05275565 18.24663906 6 21 C5.81824219 20.443125 5.63648438 19.88625 5.44921875 19.3125 C4.15913849 15.39594866 2.82919565 11.5225733 1.3125 7.6875 C0 4 0 4 0 0 Z " fill="#75D4D8" transform="translate(470,199)"/>
<path d="M0 0 C3.97169202 2.17318997 6.77085357 3.77085357 10 7 C6.7 7.33 3.4 7.66 0 8 C0 5.33333333 0 2.66666667 0 0 Z " fill="#68D8DB" transform="translate(441,167)"/>
<path d="M0 0 C-1.65 0.66 -3.3 1.32 -5 2 C-5 2.66 -5 3.32 -5 4 C-13.03571429 6.27678571 -13.03571429 6.27678571 -17 5 C-14.73392948 3.96724659 -12.46318061 2.94866449 -10.1875 1.9375 C-9.22360352 1.49567383 -9.22360352 1.49567383 -8.24023438 1.04492188 C-3.33984375 -1.11328125 -3.33984375 -1.11328125 0 0 Z " fill="#71D5D9" transform="translate(230,154)"/>
<path d="M0 0 C0.33 0.66 0.66 1.32 1 2 C-0.65 2 -2.3 2 -4 2 C-4 1.34 -4 0.68 -4 0 C-11.02782042 -1.0390717 -11.02782042 -1.0390717 -18 0 C-18 -0.66 -18 -1.32 -18 -2 C-11.34669757 -4.21776748 -6.16112474 -2.76188351 0 0 Z " fill="#70D6D7" transform="translate(436,335)"/>
<path d="M0 0 C1.6852084 4.07679159 0.16939007 6.83075593 -1.4375 10.75 C-1.91058594 11.92046875 -2.38367188 13.0909375 -2.87109375 14.296875 C-3.24363281 15.18890625 -3.61617188 16.0809375 -4 17 C-5.084894 13.74531799 -5.21314985 11.4103976 -5 8 C-4.34 7.01 -3.68 6.02 -3 5 C-2.34 5 -1.68 5 -1 5 C-0.67 3.35 -0.34 1.7 0 0 Z " fill="#72D7DC" transform="translate(475,248)"/>
<path d="M0 0 C2.31 0 4.62 0 7 0 C6.67 1.32 6.34 2.64 6 4 C6.99 4 7.98 4 9 4 C8.67 4.99 8.34 5.98 8 7 C8 6.34 8 5.68 8 5 C5.36 4.67 2.72 4.34 0 4 C0 2.68 0 1.36 0 0 Z " fill="#72D6DA" transform="translate(230,171)"/>
<path d="M0 0 C0.89138672 0.32484375 0.89138672 0.32484375 1.80078125 0.65625 C8.35522322 2.85805321 14.1134378 3.35349274 21 3 C21 3.66 21 4.32 21 5 C18.77090129 5.02714735 16.54170633 5.04646254 14.3125 5.0625 C13.07113281 5.07410156 11.82976562 5.08570313 10.55078125 5.09765625 C7.53764546 5.01478673 4.91724661 4.70839449 2 4 C2 3.34 2 2.68 2 2 C1.34 2 0.68 2 0 2 C0 1.34 0 0.68 0 0 Z " fill="#75D7DA" transform="translate(355,298)"/>
<path d="M0 0 C1.32 0.33 2.64 0.66 4 1 C3.67 2.32 3.34 3.64 3 5 C2.34 5 1.68 5 1 5 C0.67 5.66 0.34 6.32 0 7 C-0.66 7 -1.32 7 -2 7 C-2.33 7.99 -2.66 8.98 -3 10 C-3.66 10 -4.32 10 -5 10 C-3.66511872 6.40608886 -2.03977277 3.24509304 0 0 Z " fill="#6AD9DD" transform="translate(212,219)"/>
<path d="M0 0 C-0.25 1.875 -0.25 1.875 -1 4 C-3.0625 5.25 -3.0625 5.25 -5 6 C-5 5.34 -5 4.68 -5 4 C-5.5775 4.350625 -6.155 4.70125 -6.75 5.0625 C-9.39786506 6.16577711 -10.33185326 5.80156509 -13 5 C-11.21046815 4.16209211 -9.41830305 3.32980604 -7.625 2.5 C-6.62726563 2.0359375 -5.62953125 1.571875 -4.6015625 1.09375 C-2 0 -2 0 0 0 Z " fill="#70D6D8" transform="translate(392,294)"/>
<path d="M0 0 C1.32 0.99 2.64 1.98 4 3 C4.99 3.33 5.98 3.66 7 4 C5.63016497 7.16115776 5.0109362 7.9927092 2 10 C1.34 6.7 0.68 3.4 0 0 Z " fill="#63DDDD" transform="translate(158,257)"/>
<path d="M0 0 C1.00289063 0.10183594 2.00578125 0.20367187 3.0390625 0.30859375 C3.80992187 0.39238281 4.58078125 0.47617188 5.375 0.5625 C5.375 0.8925 5.375 1.2225 5.375 1.5625 C3.25290224 2.25890673 1.12721473 2.94438357 -1 3.625 C-2.77503906 4.19927734 -2.77503906 4.19927734 -4.5859375 4.78515625 C-7.625 5.5625 -7.625 5.5625 -9.625 4.5625 C-8.635 4.2325 -7.645 3.9025 -6.625 3.5625 C-6.955 2.5725 -7.285 1.5825 -7.625 0.5625 C-4.89657939 -0.80171031 -3.01546682 -0.31557211 0 0 Z " fill="#6DDBDC" transform="translate(344.625,196.4375)"/>
<path d="M0 0 C0.33 0.66 0.66 1.32 1 2 C3.32156597 2.40729228 5.6568787 2.74438677 8 3 C8 4.32 8 5.64 8 7 C6.35 7 4.7 7 3 7 C2.67 6.01 2.34 5.02 2 4 C1.34 3.67 0.68 3.34 0 3 C0 2.01 0 1.02 0 0 Z " fill="#7BE1E3" transform="translate(228,175)"/>
<path d="M0 0 C0.66 0 1.32 0 2 0 C2.33 1.32 2.66 2.64 3 4 C3.66 3.34 4.32 2.68 5 2 C5.3125 4.1875 5.3125 4.1875 5 7 C2.75 9.875 2.75 9.875 0 12 C-2.3125 11.8125 -2.3125 11.8125 -4 11 C-3.34 10.484375 -2.68 9.96875 -2 9.4375 C0.65637543 6.20004245 0.31342132 4.07447719 0 0 Z " fill="#75D7D9" transform="translate(256,169)"/>
<path d="M0 0 C0.66 1.65 1.32 3.3 2 5 C0.35 5.33 -1.3 5.66 -3 6 C-3.103125 5.360625 -3.20625 4.72125 -3.3125 4.0625 C-3.539375 3.381875 -3.76625 2.70125 -4 2 C-4.99 1.67 -5.98 1.34 -7 1 C-4 0 -4 0 0 0 Z " fill="#5BE1E3" transform="translate(289,275)"/>
<path d="M0 0 C7.66742597 5.96583144 7.66742597 5.96583144 9 11 C8.01 11 7.02 11 6 11 C5.67 10.01 5.34 9.02 5 8 C2.98491642 7.26676204 2.98491642 7.26676204 1 7 C1.33 6.01 1.66 5.02 2 4 C1.12516085 1.83284443 1.12516085 1.83284443 0 0 Z " fill="#63D8DA" transform="translate(455,178)"/>
<path d="M0 0 C4.54805635 -0.17835515 7.8794254 0.00214565 12 2 C12 2.66 12 3.32 12 4 C10.35 4.66 8.7 5.32 7 6 C7 5.01 7 4.02 7 3 C5.824375 3.0928125 5.824375 3.0928125 4.625 3.1875 C3.75875 3.125625 2.8925 3.06375 2 3 C1.34 2.01 0.68 1.02 0 0 Z " fill="#66D5D9" transform="translate(172,112)"/>
<path d="M0 0 C0.33 0 0.66 0 1 0 C1.13277344 0.89203125 1.26554687 1.7840625 1.40234375 2.703125 C1.57894531 3.87359375 1.75554687 5.0440625 1.9375 6.25 C2.11152344 7.41015625 2.28554688 8.5703125 2.46484375 9.765625 C2.8727736 12.23106961 3.33901303 14.59424562 4 17 C3.01 16.67 2.02 16.34 1 16 C1 15.01 1 14.02 1 13 C0.34 13 -0.32 13 -1 13 C-0.67 8.71 -0.34 4.42 0 0 Z " fill="#76D5DA" transform="translate(262,288)"/>
<path d="M0 0 C0.70125 0.721875 1.4025 1.44375 2.125 2.1875 C4.92770745 4.99823813 7.92262792 7.49516226 11 10 C7.40577503 10 6.00655764 8.85018932 3 7 C2.34 7 1.68 7 1 7 C0.67 4.69 0.34 2.38 0 0 Z " fill="#71D9D7" transform="translate(343,287)"/>
<path d="M0 0 C0.33 1.32 0.66 2.64 1 4 C-3.17737474 5.59138085 -6.53160785 6.21278058 -11 6 C-7.58983503 3.13546142 -4.09305456 1.65296434 0 0 Z " fill="#71D8D8" transform="translate(369,235)"/>
<path d="M0 0 C1.65 0.33 3.3 0.66 5 1 C-2 4.5 -2 4.5 -9 8 C-9 7.01 -9 6.02 -9 5 C-8.01 5 -7.02 5 -6 5 C-6 4.34 -6 3.68 -6 3 C-4.02 2.67 -2.04 2.34 0 2 C0 1.34 0 0.68 0 0 Z " fill="#72DBDD" transform="translate(216,199)"/>
<path d="M0 0 C-0.72008406 4.60853797 -2.31295939 8.67237409 -4 13 C-5.16801612 9.49595163 -4.59818813 7.58912879 -4 4 C-4.33 3.01 -4.66 2.02 -5 1 C-2 0 -2 0 0 0 Z " fill="#6CDAD7" transform="translate(207,269)"/>
<path d="M0 0 C0.66 0.33 1.32 0.66 2 1 C1.34 1.66 0.68 2.32 0 3 C-0.31404687 7.23963281 -0.32617985 10.36534398 2 14 C-2.86111111 9.86805556 -2.86111111 9.86805556 -3.5 5.875 C-2.96567755 2.80264589 -2.45179712 1.83884784 0 0 Z " fill="#78D3CF" transform="translate(286,235)"/>
<path d="M0 0 C0.66 0.33 1.32 0.66 2 1 C1.360625 1.78375 0.72125 2.5675 0.0625 3.375 C-1.98142313 5.79539281 -1.98142313 5.79539281 -3 8 C-4.65 7.67 -6.3 7.34 -8 7 C-5.42215154 4.35247996 -3.08351902 2.05567935 0 0 Z " fill="#6BD7DD" transform="translate(57,164)"/>
<path d="M0 0 C1.32 0.66 2.64 1.32 4 2 C4 3.65 4 5.3 4 7 C1 8 1 8 -2.1875 6.5625 C-3.115625 6.046875 -4.04375 5.53125 -5 5 C-4.34 4.67 -3.68 4.34 -3 4 C-0.375 4.9375 -0.375 4.9375 2 6 C1.34 4.02 0.68 2.04 0 0 Z " fill="#7AD7D5" transform="translate(293,278)"/>
<path d="M0 0 C1.13643966 3.40931897 0.86747764 4.00335456 -0.4375 7.1875 C-0.72496094 7.90292969 -1.01242188 8.61835938 -1.30859375 9.35546875 C-1.53675781 9.89816406 -1.76492187 10.44085938 -2 11 C-3.32 10.34 -4.64 9.68 -6 9 C-4.02 6.03 -2.04 3.06 0 0 Z " fill="#71DBD8" transform="translate(31,189)"/>
<path d="M0 0 C9.59453303 2.89066059 9.59453303 2.89066059 13 6 C11.5199159 5.88637738 10.04089926 5.75877092 8.5625 5.625 C7.73878906 5.55539063 6.91507812 5.48578125 6.06640625 5.4140625 C5.38449219 5.27742187 4.70257813 5.14078125 4 5 C3.67 4.34 3.34 3.68 3 3 C2.01 2.67 1.02 2.34 0 2 C0 1.34 0 0.68 0 0 Z " fill="#6DD2D6" transform="translate(428,161)"/>
<path d="M0 0 C2.64 0 5.28 0 8 0 C7.67 0.66 7.34 1.32 7 2 C4.78515625 2.703125 4.78515625 2.703125 2.0625 3.25 C1.16660156 3.44078125 0.27070313 3.6315625 -0.65234375 3.828125 C-1.42707031 3.88484375 -2.20179688 3.9415625 -3 4 C-3.66 3.34 -4.32 2.68 -5 2 C-3.35 2 -1.7 2 0 2 C0 1.34 0 0.68 0 0 Z " fill="#7BDEDF" transform="translate(304,132)"/>
<path d="M0 0 C0.66 0 1.32 0 2 0 C2 0.66 2 1.32 2 2 C2.99 2.33 3.98 2.66 5 3 C4.67 3.99 4.34 4.98 4 6 C2.02 6.33 0.04 6.66 -2 7 C-1.34 4.69 -0.68 2.38 0 0 Z " fill="#6DDDE1" transform="translate(192,286)"/>
<path d="M0 0 C1.65 0.33 3.3 0.66 5 1 C4.02526874 2.66926454 3.04510211 4.33535642 2.0625 6 C1.24458984 7.3921875 1.24458984 7.3921875 0.41015625 8.8125 C-0.05519531 9.534375 -0.52054688 10.25625 -1 11 C-1.33 11 -1.66 11 -2 11 C-2 9.35 -2 7.7 -2 6 C-1.34 5.67 -0.68 5.34 0 5 C0 3.35 0 1.7 0 0 Z " fill="#6DD8D8" transform="translate(181,234)"/>
<path d="M0 0 C2.5625 0.1875 2.5625 0.1875 4.5625 2.1875 C4.6875 5.8125 4.6875 5.8125 4.5625 9.1875 C4.2325 9.1875 3.9025 9.1875 3.5625 9.1875 C3.2325 7.5375 2.9025 5.8875 2.5625 4.1875 C1.5725 4.6825 1.5725 4.6825 0.5625 5.1875 C0.2325 4.5275 -0.0975 3.8675 -0.4375 3.1875 C-1.4275 2.5275 -2.4175 1.8675 -3.4375 1.1875 C-2.4375 0.1875 -2.4375 0.1875 0 0 Z " fill="#73D6DC" transform="translate(249.4375,167.8125)"/>
<path d="M0 0 C0.99 0.495 0.99 0.495 2 1 C2.39593121 3.84350596 2.50849854 6.6648717 2.65625 9.53125 C2.7696875 10.3459375 2.883125 11.160625 3 12 C3.66 12.33 4.32 12.66 5 13 C4.67 13.66 4.34 14.32 4 15 C2.68 14.34 1.36 13.68 0 13 C0 8.71 0 4.42 0 0 Z " fill="#74D3D6" transform="translate(306,167)"/>
<path d="M0 0 C0.33 0 0.66 0 1 0 C1 3.3 1 6.6 1 10 C-0.65 10 -2.3 10 -4 10 C-2.8905928 6.51329166 -1.73662334 3.22515763 0 0 Z " fill="#91DFE3" transform="translate(154,272)"/>
<path d="M0 0 C0.33 1.32 0.66 2.64 1 4 C1.66 4 2.32 4 3 4 C2.67 5.32 2.34 6.64 2 8 C0.68 8 -0.64 8 -2 8 C-2.20086443 4.28400809 -2.1519437 3.22791555 0 0 Z " fill="#5BE2E4" transform="translate(328,263)"/>
<path d="M0 0 C0.66 0.33 1.32 0.66 2 1 C-0.64 4.3 -3.28 7.6 -6 11 C-6.66 10.01 -7.32 9.02 -8 8 C-7.01 7.67 -6.02 7.34 -5 7 C-4.67 6.01 -4.34 5.02 -4 4 C-2.70644173 2.62804426 -1.37701298 1.28817344 0 0 Z " fill="#71D8D7" transform="translate(177,245)"/>
<path d="M0 0 C0.7734375 0.495 0.7734375 0.495 1.5625 1 C4.1198469 2.2293153 4.1198469 2.2293153 7.625 2 C8.73875 2 9.8525 2 11 2 C11.66 2.66 12.32 3.32 13 4 C11.39679026 4.19551338 9.79237014 4.38111983 8.1875 4.5625 C7.29417969 4.66691406 6.40085937 4.77132812 5.48046875 4.87890625 C3 5 3 5 0 4 C0 2.68 0 1.36 0 0 Z " fill="#7DDEDE" transform="translate(261,176)"/>
<path d="M0 0 C1.65 0 3.3 0 5 0 C2.19195732 2.96404505 -0.18315774 5.44499019 -4 7 C-3.67 6.01 -3.34 5.02 -3 4 C-2.34 4 -1.68 4 -1 4 C-0.67 2.68 -0.34 1.36 0 0 Z " fill="#6FD7D8" transform="translate(340,395)"/>
<path d="M0 0 C1.6510403 0.39553053 3.2958515 0.81713897 4.9375 1.25 C5.85402344 1.48203125 6.77054688 1.7140625 7.71484375 1.953125 C10 3 10 3 10.81640625 5.109375 C10.87699219 5.73328125 10.93757813 6.3571875 11 7 C6.89188572 5.55007731 3.53144334 3.54592427 0 1 C0 0.67 0 0.34 0 0 Z " fill="#7BD9DC" transform="translate(55,328)"/>
<path d="M0 0 C0.99 0 1.98 0 3 0 C3.268125 1.093125 3.53625 2.18625 3.8125 3.3125 C4.87663739 6.61692663 5.34654664 7.94960422 8 10 C6.35 9.67 4.7 9.34 3 9 C3 8.34 3 7.68 3 7 C2.01 6.67 1.02 6.34 0 6 C0.66 4.35 1.32 2.7 2 1 C1.34 0.67 0.68 0.34 0 0 Z " fill="#6CD8DE" transform="translate(151,281)"/>
<path d="M0 0 C1.485 0.99 1.485 0.99 3 2 C3 2.99 3 3.98 3 5 C4.98 5 6.96 5 9 5 C8.34 5.66 7.68 6.32 7 7 C3.55834679 6.64700993 1.93127462 5.95418308 -1 4 C-0.67 2.68 -0.34 1.36 0 0 Z " fill="#75D4D3" transform="translate(244,172)"/>
<path d="M0 0 C0 0.66 0 1.32 0 2 C-0.99 2.33 -1.98 2.66 -3 3 C-3.99 4.485 -3.99 4.485 -5 6 C-5.99 5.01 -6.98 4.02 -8 3 C-5.53387212 -0.1151089 -3.89156016 -0.31553191 0 0 Z " fill="#68DEE2" transform="translate(312,321)"/>
<path d="M0 0 C0 3.9519815 -1.37176172 5.14648416 -4 8 C-4.99 8.33 -5.98 8.66 -7 9 C-7.66 8.34 -8.32 7.68 -9 7 C-8.360625 6.896875 -7.72125 6.79375 -7.0625 6.6875 C-6.381875 6.460625 -5.70125 6.23375 -5 6 C-4.67 5.01 -4.34 4.02 -4 3 C-1.9375 1.3125 -1.9375 1.3125 0 0 Z " fill="#69DBDD" transform="translate(149,282)"/>
<path d="M0 0 C0.33 0 0.66 0 1 0 C1.33 4.29 1.66 8.58 2 13 C0.68 11.68 -0.64 10.36 -2 9 C-1.953125 6.640625 -1.953125 6.640625 -1.25 4.25 C-1.02828125 3.45078125 -0.8065625 2.6515625 -0.578125 1.828125 C-0.38734375 1.22484375 -0.1965625 0.6215625 0 0 Z " fill="#6FDAD9" transform="translate(93,250)"/>
<path d="M0 0 C-4.10457614 2.98514628 -6.97745369 3.2954439 -12 3 C-8.61613364 -0.38386636 -4.56431325 -1.75550509 0 0 Z " fill="#76D3D8" transform="translate(89,152)"/>
<path d="M0 0 C3.3 0 6.6 0 10 0 C10.33 1.65 10.66 3.3 11 5 C10.29875 4.525625 9.5975 4.05125 8.875 3.5625 C5.83918663 1.91260143 3.40831214 1.39631536 0 1 C0 0.67 0 0.34 0 0 Z " fill="#6ED7D7" transform="translate(354,197)"/>
<path d="M0 0 C0.66 0.99 1.32 1.98 2 3 C0.35830472 5.02054804 -1.30911778 7.02043058 -3 9 C-3.33 9 -3.66 9 -4 9 C-4 7.35 -4 5.7 -4 4 C-3.34 4 -2.68 4 -2 4 C-1.34 2.68 -0.68 1.36 0 0 Z " fill="#6DDCDF" transform="translate(205,205)"/>
<path d="M0 0 C0 0.66 0 1.32 0 2 C-2.31 2 -4.62 2 -7 2 C-7.33 1.34 -7.66 0.68 -8 0 C-4.71023192 -1.09658936 -3.28696233 -0.79953138 0 0 Z " fill="#6DDCE2" transform="translate(261,413)"/>
<path d="M0 0 C7.50769231 -0.36923077 7.50769231 -0.36923077 10 1.5 C10.495 2.2425 10.495 2.2425 11 3 C9.741875 2.87625 8.48375 2.7525 7.1875 2.625 C6.12595703 2.52058594 6.12595703 2.52058594 5.04296875 2.4140625 C3 2 3 2 0 0 Z " fill="#75D9D8" transform="translate(80,341)"/>
<path d="M0 0 C0.66 1.32 1.32 2.64 2 4 C-0.31 4.33 -2.62 4.66 -5 5 C-3.35 3.35 -1.7 1.7 0 0 Z " fill="#6ADADB" transform="translate(397,289)"/>
<path d="M0 0 C0.33 0.66 0.66 1.32 1 2 C1.99 2.33 2.98 2.66 4 3 C2.68 4.65 1.36 6.3 0 8 C-0.38063221 5.6739143 -0.71269945 3.33944736 -1 1 C-0.67 0.67 -0.34 0.34 0 0 Z " fill="#6CD8DC" transform="translate(263,280)"/>
<path d="M0 0 C0.33 0.66 0.66 1.32 1 2 C0.22265625 3.7265625 0.22265625 3.7265625 -0.9375 5.625 C-1.618125 6.73875 -2.29875 7.8525 -3 9 C-3.66 7.68 -4.32 6.36 -5 5 C-4.01 4.67 -3.02 4.34 -2 4 C-0.79117904 1.99983534 -0.79117904 1.99983534 0 0 Z " fill="#71D6D9" transform="translate(469,265)"/>
<path d="M0 0 C0.33 0 0.66 0 1 0 C1.125 5.75 1.125 5.75 0 8 C-0.99 8 -1.98 8 -3 8 C-1.125 2.25 -1.125 2.25 0 0 Z " fill="#71D4D3" transform="translate(24,200)"/>
<path d="M0 0 C0 0.66 0 1.32 0 2 C-6.625 3 -6.625 3 -10 3 C-9.67 2.34 -9.34 1.68 -9 1 C-5.93090555 0.33280556 -3.14213983 0 0 0 Z " fill="#7CD9E1" transform="translate(352,175)"/>
<path d="M0 0 C3.65316671 1.24976756 4.78065836 1.67098753 7 5 C5.68 5.33 4.36 5.66 3 6 C2.67 4.68 2.34 3.36 2 2 C1.34 2 0.68 2 0 2 C0 1.34 0 0.68 0 0 Z " fill="#6CD7D8" transform="translate(320,169)"/>
<path d="M0 0 C2 0 2 0 3.6875 1.25 C4.120625 1.8275 4.55375 2.405 5 3 C4.6875 5.1875 4.6875 5.1875 4 7 C3.34 7 2.68 7 2 7 C1.34 4.69 0.68 2.38 0 0 Z " fill="#6DD8DE" transform="translate(373,223)"/>
<path d="M0 0 C0.66 0.33 1.32 0.66 2 1 C2 2.32 2 3.64 2 5 C0.35 4.67 -1.3 4.34 -3 4 C-2.01 2.68 -1.02 1.36 0 0 Z " fill="#5BEBF3" transform="translate(296,174)"/>
<path d="M0 0 C0 2.83967231 -0.40267181 5.23735711 -1 8 C-1.99 7.34 -2.98 6.68 -4 6 C-4.66 5.67 -5.32 5.34 -6 5 C-4.02 3.35 -2.04 1.7 0 0 Z " fill="#6BD6D9" transform="translate(48,171)"/>
<path d="M0 0 C0.66 0.33 1.32 0.66 2 1 C0.515 3.475 0.515 3.475 -1 6 C-1.33 5.34 -1.66 4.68 -2 4 C-3.32 4.33 -4.64 4.66 -6 5 C-4.06745228 2.9754262 -2.36841312 1.57894208 0 0 Z " fill="#6FD6D8" transform="translate(366,165)"/>
<path d="M0 0 C2.97 0.495 2.97 0.495 6 1 C5.34 2.32 4.68 3.64 4 5 C3.34 5 2.68 5 2 5 C1.34 3.35 0.68 1.7 0 0 Z " fill="#6AE1E8" transform="translate(377,160)"/>
<path d="" fill="#FFFFFF" transform="translate(0,0)"/>
<path d="" fill="#FFFFFF" transform="translate(0,0)"/>
<path d="" fill="#FFFFFF" transform="translate(0,0)"/>
<path d="" fill="#FFFFFF" transform="translate(0,0)"/>
<path d="" fill="#FFFFFF" transform="translate(0,0)"/>
<path d="" fill="#FFFFFF" transform="translate(0,0)"/>
<path d="" fill="#FFFFFF" transform="translate(0,0)"/>
<path d="" fill="#FFFFFF" transform="translate(0,0)"/>
<path d="" fill="#FFFFFF" transform="translate(0,0)"/>
<path d="" fill="#FFFFFF" transform="translate(0,0)"/>
<path d="" fill="#FFFFFF" transform="translate(0,0)"/>
<path d="" fill="#FFFFFF" transform="translate(0,0)"/>
<path d="" fill="#FFFFFF" transform="translate(0,0)"/>
<path d="" fill="#FFFFFF" transform="translate(0,0)"/>
<path d="" fill="#FFFFFF" transform="translate(0,0)"/>
<path d="" fill="#FFFFFF" transform="translate(0,0)"/>
<path d="" fill="#FFFFFF" transform="translate(0,0)"/>
<path d="" fill="#FFFFFF" transform="translate(0,0)"/>
<path d="" fill="#FFFFFF" transform="translate(0,0)"/>
<path d="" fill="#FFFFFF" transform="translate(0,0)"/>
<path d="" fill="#FFFFFF" transform="translate(0,0)"/>
<path d="" fill="#FFFFFF" transform="translate(0,0)"/>
<path d="" fill="#FFFFFF" transform="translate(0,0)"/>
<path d="" fill="#FFFFFF" transform="translate(0,0)"/>
<path d="" fill="#FFFFFF" transform="translate(0,0)"/>
<path d="" fill="#FFFFFF" transform="translate(0,0)"/>
<path d="" fill="#FFFFFF" transform="translate(0,0)"/>
<path d="" fill="#FFFFFF" transform="translate(0,0)"/>
<path d="" fill="#FFFFFF" transform="translate(0,0)"/>
<path d="" fill="#FFFFFF" transform="translate(0,0)"/>
<path d="" fill="#FFFFFF" transform="translate(0,0)"/>
<path d="" fill="#FFFFFF" transform="translate(0,0)"/>
<path d="" fill="#FFFFFF" transform="translate(0,0)"/>
<path d="" fill="#FFFFFF" transform="translate(0,0)"/>
<path d="" fill="#FFFFFF" transform="translate(0,0)"/>
<path d="" fill="#FFFFFF" transform="translate(0,0)"/>
<path d="" fill="#FFFFFF" transform="translate(0,0)"/>
<path d="" fill="#FFFFFF" transform="translate(0,0)"/>
<path d="" fill="#FFFFFF" transform="translate(0,0)"/>
<path d="" fill="#FFFFFF" transform="translate(0,0)"/>
<path d="" fill="#FFFFFF" transform="translate(0,0)"/>
<path d="" fill="#80FFFF" transform="translate(0,0)"/>
<path d="" fill="#FFFFFF" transform="translate(0,0)"/>
<path d="" fill="#FFFFFF" transform="translate(0,0)"/>
<path d="" fill="#FFFFFF" transform="translate(0,0)"/>
<path d="" fill="#FFFFFF" transform="translate(0,0)"/>
<path d="" fill="#FFFFFF" transform="translate(0,0)"/>
<path d="" fill="#FFFFFF" transform="translate(0,0)"/>
<path d="" fill="#FFFFFF" transform="translate(0,0)"/>
<path d="" fill="#FFFFFF" transform="translate(0,0)"/>
<path d="" fill="#FFFFFF" transform="translate(0,0)"/>
<path d="" fill="#FFFFFF" transform="translate(0,0)"/>
<path d="" fill="#FFFFFF" transform="translate(0,0)"/>
<path d="" fill="#FFFFFF" transform="translate(0,0)"/>
<path d="" fill="#FFFFFF" transform="translate(0,0)"/>
<path d="" fill="#FFFFFF" transform="translate(0,0)"/>
<path d="" fill="#FFFFFF" transform="translate(0,0)"/>
<path d="" fill="#FFFFFF" transform="translate(0,0)"/>
<path d="" fill="#FFFFFF" transform="translate(0,0)"/>
<path d="" fill="#FFFFFF" transform="translate(0,0)"/>
<path d="" fill="#FFFFFF" transform="translate(0,0)"/>
<path d="" fill="#FFFFFF" transform="translate(0,0)"/>
<path d="" fill="#FFFFFF" transform="translate(0,0)"/>
<path d="" fill="#FFFFFF" transform="translate(0,0)"/>
<path d="" fill="#FFFFFF" transform="translate(0,0)"/>
<path d="" fill="#FFFFFF" transform="translate(0,0)"/>
<path d="" fill="#FFFFFF" transform="translate(0,0)"/>
<path d="" fill="#FFFFFF" transform="translate(0,0)"/>
<path d="" fill="#FFFFFF" transform="translate(0,0)"/>
<path d="" fill="#FFFFFF" transform="translate(0,0)"/>
<path d="" fill="#FFFFFF" transform="translate(0,0)"/>
<path d="" fill="#FFFFFF" transform="translate(0,0)"/>
<path d="" fill="#FFFFFF" transform="translate(0,0)"/>
<path d="" fill="#FFFFFF" transform="translate(0,0)"/>
<path d="" fill="#FFFFFF" transform="translate(0,0)"/>
<path d="" fill="#FFFFFF" transform="translate(0,0)"/>
<path d="" fill="#FFFFFF" transform="translate(0,0)"/>
<path d="" fill="#FFFFFF" transform="translate(0,0)"/>
<path d="" fill="#FFFFFF" transform="translate(0,0)"/>
</svg>
