<?xml version="1.0" encoding="UTF-8"?>
<svg version="1.1" xmlns="http://www.w3.org/2000/svg" width="500" height="500">
<path d="M0 0 C165 0 330 0 500 0 C500 165 500 330 500 500 C335 500 170 500 0 500 C0 335 0 170 0 0 Z " fill="#FBFCF1" transform="translate(0,0)"/>
<path d="M0 0 C2.10084847 0.9843476 4.20443802 1.96264947 6.30834961 2.94042969 C7.613194 3.54890141 8.91620094 4.16133425 10.21704102 4.77832031 C20.06402507 9.44189539 31.99019849 9.55520488 42.609375 7.19921875 C45.85822031 5.97458923 48.89808822 4.56172642 52 3 C55.20304182 1.44728869 58.41431465 -0.08816855 61.625 -1.625 C62.85355713 -2.21849243 62.85355713 -2.21849243 64.10693359 -2.82397461 C69.92668434 -5.59979228 75.62560608 -7.84849658 82 -9 C82.97582031 -9.17917969 83.95164063 -9.35835937 84.95703125 -9.54296875 C100.79103421 -11.70157039 117.87588957 -11.32047714 133 -6 C134.10730469 -5.63777344 135.21460938 -5.27554688 136.35546875 -4.90234375 C147.13059378 -1.1046593 156.83788808 4.5160586 165.9375 11.375 C174.10085117 17.4087813 182.01708113 17.92648899 192 17 C195.04285779 16.11626573 197.40058742 14.79193548 200 13 C217.73899284 0.80872307 236.84094126 -4.93610422 258.38964844 -1.63378906 C278.43443327 2.42239163 294.74881119 12.87591555 307.12109375 29.1484375 C319.08309998 47.30283365 323.17038317 67.7300712 319.140625 89.25 C314.88922095 108.32371367 303.93733689 124.45134978 287.69140625 135.33984375 C278.04870396 141.2878096 268.08290579 145.06053601 257.0859375 147.69921875 C250.21047285 149.37450802 244.8321072 151.99494231 239 156 C237.96875 156.70125 236.9375 157.4025 235.875 158.125 C227.90044805 165.21600784 223.82296169 174.9798835 221 185 C212.51574005 212.23173758 197.02461949 232.92551128 172 247 C149.885582 258.57478048 125.23999056 262.73009353 101 256 C99.948125 255.73316406 98.89625 255.46632813 97.8125 255.19140625 C70.513099 247.66399789 50.51744951 229.33885478 36.57666016 205.09594727 C29.86970674 193.49173917 22.60337363 187.98630603 10.30859375 182.8828125 C5.88828736 181.70336829 1.74243808 181.67049127 -2.8125 181.6875 C-3.66392578 181.67138672 -4.51535156 181.65527344 -5.39257812 181.63867188 C-10.70712627 181.63462424 -14.98680753 182.42638176 -19.96508789 184.26733398 C-40.75626383 191.7531551 -67.51862261 187.20497655 -86.84033203 178.13623047 C-95.83999498 173.80288931 -103.60006584 168.7814322 -111 162 C-111.92554687 161.16726563 -112.85109375 160.33453125 -113.8046875 159.4765625 C-127.29864235 146.73019518 -136.45976338 129.95457209 -141 112 C-141.26707764 110.95670532 -141.26707764 110.95670532 -141.53955078 109.89233398 C-143.26716028 102.38981535 -143.38508419 94.98704922 -143.375 87.3125 C-143.37478851 86.64736389 -143.37457703 85.98222778 -143.37435913 85.29693604 C-143.34233394 75.2161358 -142.72786358 66.44715918 -139 57 C-138.61457031 55.95585937 -138.22914063 54.91171875 -137.83203125 53.8359375 C-136.6567195 50.83109516 -135.37442547 47.9186329 -134 45 C-133.58234375 44.11054688 -133.1646875 43.22109375 -132.734375 42.3046875 C-119.72193608 16.65373032 -96.29509803 0.78923779 -69.59765625 -8.08984375 C-46.21100503 -14.0063364 -21.37664838 -10.27284026 0 0 Z " fill="#5CE1E6" transform="translate(157,159)"/>
<path d="M0 0 C3.17958888 1.61564475 5.22108866 3.92436053 7.3125 6.8125 C9.45882958 13.64173049 9.18528273 21.09821174 9.28125 28.18359375 C9.29965942 29.23853531 9.31806885 30.29347687 9.33703613 31.38038635 C9.39542058 34.73270443 9.44838336 38.08507132 9.5 41.4375 C9.56809172 45.85296145 9.64176967 50.26827931 9.71875 54.68359375 C9.73232544 55.68386093 9.74590088 56.68412811 9.7598877 57.71470642 C9.85026387 62.87488674 10.14187409 67.92318216 10.771698 73.04554749 C11.29371301 77.51442439 11.26821332 82.00637834 11.3125 86.5 C11.34150391 87.48097656 11.37050781 88.46195312 11.40039062 89.47265625 C11.46361505 96.77750936 10.23097847 102.81077768 5.69360352 108.69384766 C3.05764043 111.3070754 1.24598236 111.99105519 -2.4375 112.125 C-6.61260904 111.27376418 -10.68722513 109.96410698 -14.75 108.6875 C-15.7253772 108.38706787 -15.7253772 108.38706787 -16.72045898 108.08056641 C-20.71678432 106.74484231 -23.50448254 105.44356944 -26 102 C-29.22033926 89.15608876 -22.14372254 73.73731489 -16.17578125 62.59375 C-14.60116468 59.83458326 -14.60116468 59.83458326 -16 56 C-19.63 55.34 -23.26 54.68 -27 54 C-27.03738281 54.92039063 -27.07476562 55.84078125 -27.11328125 56.7890625 C-27.80305459 70.07058058 -29.19097911 84.28646866 -36.75 95.625 C-40.69601115 98.03645126 -45.09223094 97.45323322 -49.44580078 96.41894531 C-52.05653644 95.62129038 -54.61924865 94.73753013 -57.1875 93.8125 C-58.06341797 93.52052734 -58.93933594 93.22855469 -59.84179688 92.92773438 C-64.95761609 91.12420448 -68.55967979 89.3963524 -72 85 C-73.28045931 78.46965751 -70.46190674 73.36595544 -67 68 C-63.95916788 64.12847699 -60.74393704 60.43120292 -57.50146484 56.72851562 C-49.78194567 47.84165452 -42.88312601 38.51378149 -36.3125 28.75 C-15.50197663 -2.1398434 -15.50197663 -2.1398434 0 0 Z " fill="#F9FCF1" transform="translate(225,201)"/>
<path d="M0 0 C0.71357666 -0.01861084 1.42715332 -0.03722168 2.16235352 -0.05639648 C7.28488962 0.00553816 10.14119786 1.36901778 14.125 4.5 C14.74375 4.933125 15.3625 5.36625 16 5.8125 C17.93034507 8.70801761 17.53722425 11.14331681 17.125 14.5 C14.90636971 17.40717073 13.60555071 18.33981643 10.125 19.5 C8.76474674 19.62237632 7.40013466 19.70028082 6.03515625 19.74609375 C4.85856445 19.79540039 4.85856445 19.79540039 3.65820312 19.84570312 C2.01510921 19.90675088 0.37187206 19.96406135 -1.27148438 20.01757812 C-2.05716797 20.05173828 -2.84285156 20.08589844 -3.65234375 20.12109375 C-4.36640381 20.1461499 -5.08046387 20.17120605 -5.81616211 20.19702148 C-8.21325513 20.54977761 -9.83285579 21.19914612 -11.875 22.5 C-13.14219972 25.26409672 -13.14219972 25.26409672 -12.875 28.5 C-9.3956038 33.54579104 -5.94376973 35.92394177 -0.4375 38.4375 C0.26262207 38.77467041 0.96274414 39.11184082 1.68408203 39.45922852 C4.46814627 40.79848217 7.26599827 42.10569001 10.07373047 43.39453125 C22.14159882 48.94530714 31.66014261 55.61992997 38.125 67.5 C40.29250962 74.00252886 40.29436714 82.72970865 38.25390625 89.30859375 C37.04868984 91.5886261 35.75211185 93.50121285 34.125 95.5 C33.36316406 96.46679688 33.36316406 96.46679688 32.5859375 97.453125 C25.32402695 105.64428477 14.51622713 107.80095582 4.02734375 108.79296875 C-7.53315095 109.30278794 -17.35819242 105.29278367 -25.875 97.5 C-31.45342668 91.99781606 -34.94012885 86.46149773 -35.3125 78.4375 C-35.14839553 73.73555019 -34.09458175 71.05848509 -30.875 67.5 C-27.07556691 64.21867142 -24.11491895 62.84271887 -19.015625 63.10546875 C-14.99318708 63.84683048 -11.50979455 65.68909343 -7.875 67.5 C-6.5250715 68.0930752 -5.17126376 68.6774564 -3.8125 69.25 C-2.843125 69.6625 -1.87375 70.075 -0.875 70.5 C-1.43822047 67.44441809 -2.02164432 65.19791843 -4.48876953 63.18017578 C-6.6024528 61.89365382 -8.74807199 60.71536923 -10.9375 59.5625 C-12.48821049 58.698542 -14.03641608 57.83007201 -15.58203125 56.95703125 C-16.32533691 56.5388916 -17.06864258 56.12075195 -17.83447266 55.68994141 C-26.30728763 50.74898661 -32.94036679 44.58582433 -36.875 35.5 C-38.10491714 27.45310029 -37.56864245 20.42886274 -32.828125 13.68359375 C-24.15348209 3.98534298 -12.70339018 0.21763162 0 0 Z " fill="#FAFCF1" transform="translate(296.875,214.5)"/>
<path d="M0 0 C3.24769603 2.36994034 4.20629632 4.11400011 4.9375 8.0625 C4.3125 11.6875 4.3125 11.6875 2.91015625 13.11328125 C-1.84109104 16.25163069 -7.05501774 18.01357842 -12.46484375 19.6953125 C-13.19832031 20.02273437 -13.93179687 20.35015625 -14.6875 20.6875 C-15.0175 21.6775 -15.3475 22.6675 -15.6875 23.6875 C-14.24956608 23.37700274 -12.8121682 23.0640224 -11.375 22.75 C-10.17423828 22.48896484 -10.17423828 22.48896484 -8.94921875 22.22265625 C-6.542099 21.68863841 -6.542099 21.68863841 -3.6875 20.6875 C1.52847102 20.19497023 5.86425014 19.81855008 10.4375 22.5625 C12.65627565 25.0771124 13.24344489 26.16958665 13.6875 29.5 C13.29748766 32.81510486 12.68243542 34.17500024 10.21875 36.40234375 C6.68181918 38.78687293 2.75447961 40.4453602 -1.140625 42.16015625 C-3.79734166 43.42940928 -3.79734166 43.42940928 -4.625 45.70703125 C-4.7200643 48.7193813 -3.4412383 50.30742659 -1.6875 52.6875 C2.03057545 55.16621697 5.00074259 55.23946894 9.3125 54.6875 C10.446875 54.1925 11.58125 53.6975 12.75 53.1875 C18.22441509 50.88248312 22.88056865 50.87685622 28.5 52.75 C33.99884715 56.53809471 38.92378079 61.99639836 40.3125 68.6875 C41.67879649 83.78423282 41.67879649 83.78423282 37.81640625 89.98828125 C30.86712841 97.8400627 20.20366693 102.70418964 9.9453125 104.16796875 C-0.14765487 104.60730968 -7.13441288 101.14785115 -14.6875 94.6875 C-31.69000878 76.5650655 -41.82885477 50.00006339 -41.06640625 25.18359375 C-40.15742249 16.7965786 -36.04203048 10.19076319 -29.6875 4.6875 C-20.51042909 -0.93310726 -10.50568082 -3.73931012 0 0 Z " fill="#FAFCF1" transform="translate(361.6875,198.3125)"/>
<path d="M0 0 C4.04576756 2.21372188 8.18369606 4.55489212 10.3125 8.8125 C10.77463728 15.1668876 10.77463728 15.1668876 9.10229492 17.50317383 C6.78121628 19.20116111 5.28624302 19.23753809 2.42578125 19.32421875 C1.0190918 19.37739258 1.0190918 19.37739258 -0.41601562 19.43164062 C-1.88071289 19.46547852 -1.88071289 19.46547852 -3.375 19.5 C-4.85709961 19.55124023 -4.85709961 19.55124023 -6.36914062 19.60351562 C-8.80848053 19.68600538 -11.24746063 19.75515068 -13.6875 19.8125 C-14.0175 20.4725 -14.3475 21.1325 -14.6875 21.8125 C-14.13811768 21.90748779 -13.58873535 22.00247559 -13.02270508 22.1003418 C-10.51102949 22.54653825 -8.00598693 23.02293028 -5.5 23.5 C-4.20352539 23.72333008 -4.20352539 23.72333008 -2.88085938 23.95117188 C2.56634257 25.01556766 5.87281567 26.14235949 9.3125 30.8125 C10.21988141 33.83898335 9.77683133 35.5621807 9.3125 38.8125 C6.97406209 42.06960995 5.15518072 43.09077824 1.3125 43.8125 C-2.34545286 44.11349726 -6.00383071 44.31992999 -9.66796875 44.53125 C-12.56479093 44.47696405 -12.56479093 44.47696405 -13.6875 45.8125 C-14.18875283 49.14392278 -14.18875283 49.14392278 -13.6875 52.8125 C-11.14612841 55.97204305 -9.54127341 57.52790886 -5.6875 58.8125 C-3.75127964 58.93822859 -1.81342053 59.03966073 0.125 59.125 C5.29904146 59.56136494 8.51541105 60.01541105 12.3125 63.8125 C16.50767259 69.73049013 18.20628514 75.4749403 17.8515625 82.71875 C16.69605399 89.35036404 14.0890724 95.3334175 9.015625 99.86328125 C2.18239928 104.54158448 -3.27023986 105.04569706 -11.375 105.125 C-12.8280957 105.16850586 -12.8280957 105.16850586 -14.31054688 105.21289062 C-21.8639657 105.27928308 -26.77086581 103.69090392 -32.82421875 99.2421875 C-45.18312179 86.85215372 -46.96874689 69.40183519 -47.0065918 52.71923828 C-46.81466627 37.64008321 -44.49551086 17.64773347 -33.4453125 6.34765625 C-32.86523438 5.84105469 -32.28515625 5.33445313 -31.6875 4.8125 C-31.02492188 4.23371094 -30.36234375 3.65492188 -29.6796875 3.05859375 C-21.43082167 -2.96727264 -9.5697381 -3.1714739 0 0 Z " fill="#F9FCF1" transform="translate(138.6875,185.1875)"/>
<path d="M0 0 C4.91875371 2.8482311 8.18962787 6.91835141 11.0625 11.75 C12.61528077 18.42695732 12.46402208 24.59006415 9.0234375 30.6171875 C5.70869822 35.13376208 1.21342434 39.12180373 -4.3125 40.4375 C-11.06384169 41.02568507 -17.19079444 40.4702385 -23 36.6875 C-28.26648155 31.56335579 -30.45293828 26.88346374 -30.5625 19.625 C-30.51569848 14.76934184 -30.11192538 11.53665859 -27.3125 7.4375 C-26.755625 6.57125 -26.19875 5.705 -25.625 4.8125 C-18.78091883 -2.21655634 -9.05937353 -4.00136766 0 0 Z " fill="#5DE1E6" transform="translate(184.3125,114.5625)"/>
<path d="M0 0 C5.09473426 3.07606597 9.40478922 7.27686765 11.3125 13 C12.01820314 20.16115151 11.62731539 26.06888568 7.3125 32 C2.91978477 36.27711746 -1.86806336 39.1288425 -8.0625 39.4375 C-13.63210106 39.22184205 -18.1281734 37.37094977 -22.2265625 33.57421875 C-27.29626027 27.83745548 -28.21913107 22.44431624 -28.0546875 15.0078125 C-27.3673027 9.3771072 -25.07822341 5.92481471 -20.703125 2.40234375 C-13.88304996 -1.9388033 -7.66198811 -2.07782728 0 0 Z " fill="#5EE1E6" transform="translate(432.6875,334)"/>
<path d="M0 0 C3.7094303 2.06079461 5.64380056 3.46570083 8 7 C8.59992545 11.16052196 8.43783544 14.9054114 6.875 18.8125 C3.53931703 22.70413013 0.62182097 24.76831129 -4.5 25.5 C-8.7336682 24.89519026 -10.77010591 23.78945399 -14 21 C-16.910372 16.634442 -17.6506249 13.20499921 -17 8 C-13.08290393 0.45596313 -8.37257368 -2.44131796 0 0 Z " fill="#60E1E6" transform="translate(308,110)"/>
<path d="M0 0 C1.8125 0.75 1.8125 0.75 2.8125 1.75 C3.34253567 8.07344875 2.68580455 13.71379644 0.8125 19.75 C0.585625 20.554375 0.35875 21.35875 0.125 22.1875 C-1.1875 23.75 -1.1875 23.75 -4.5 24.75 C-8.1875 24.75 -8.1875 24.75 -11.1875 23.25 C-13.1875 20.75 -13.1875 20.75 -13.375 17.6875 C-12.02159043 11.68825181 -8.71432311 5.00882672 -4.125 0.90625 C-2.1875 -0.25 -2.1875 -0.25 0 0 Z " fill="#61E2E6" transform="translate(218.1875,217.25)"/>
<path d="M0 0 C3.5 0.6875 3.5 0.6875 6.5 3.25 C8.5 6.6875 8.5 6.6875 8.5 10.375 C7.03948339 15.21296125 7.03948339 15.21296125 4.5 16.6875 C1.76987683 17.55213771 -0.63908179 17.95466746 -3.5 17.6875 C-6.5 15.6875 -6.5 15.6875 -8.5 12.6875 C-9.125 9.1875 -9.125 9.1875 -8.5 5.6875 C-5.91370196 2.00398461 -4.43024874 0.87022743 0 0 Z " fill="#F1FBF1" transform="translate(249.5,164.3125)"/>
<path d="M0 0 C1.65 0.33 3.3 0.66 5 1 C6.32 6.61 7.64 12.22 9 18 C7.35 18 5.7 18 4 18 C3.67 17.01 3.34 16.02 3 15 C0.03 14.505 0.03 14.505 -3 14 C-3 14.66 -3 15.32 -3 16 C-4.65 16 -6.3 16 -8 16 C-5.36 10.72 -2.72 5.44 0 0 Z " fill="#E6F9F0" transform="translate(292,164)"/>
<path d="M0 0 C2.375 1.3125 2.375 1.3125 4 3 C4 3.99 4 4.98 4 6 C3.36191406 5.91621094 2.72382813 5.83242187 2.06640625 5.74609375 C1.24011719 5.64425781 0.41382813 5.54242188 -0.4375 5.4375 C-1.26121094 5.33308594 -2.08492188 5.22867188 -2.93359375 5.12109375 C-3.95646484 5.06115234 -3.95646484 5.06115234 -5 5 C-6.29633621 6.06645115 -6.29633621 6.06645115 -6.0625 8.5625 C-6.041875 9.366875 -6.02125 10.17125 -6 11 C-4.34385343 11.38218767 -2.67542976 11.71395102 -1 12 C-0.67 11.67 -0.34 11.34 0 11 C1.66617115 10.95936168 3.33388095 10.957279 5 11 C3.63016497 14.16115776 3.0109362 14.9927092 0 17 C-3.4375 17.4375 -3.4375 17.4375 -7 17 C-9.57836875 14.88441539 -10.72448716 13.31258474 -11.4140625 10.02734375 C-11.68093725 6.27002822 -11.31960127 4.37600149 -8.875 1.5 C-5.52678113 -0.2468968 -3.7241837 -0.55466566 0 0 Z " fill="#EFFAF1" transform="translate(271,163)"/>
<path d="M0 0 C1.8125 2 1.8125 2 3 4 C-0.28696233 4.79953138 -1.71023192 5.09658936 -5 4 C-4.67 4.66 -4.34 5.32 -4 6 C-2.865625 6.144375 -1.73125 6.28875 -0.5625 6.4375 C0.613125 6.623125 1.78875 6.80875 3 7 C5 10 5 10 4.8125 12.5625 C4 15 4 15 1 17 C-2.1875 17.125 -2.1875 17.125 -5 17 C-5.66 15.68 -6.32 14.36 -7 13 C-4.69 13.33 -2.38 13.66 0 14 C-0.33 13.01 -0.66 12.02 -1 11 C-3.31029085 10.25740651 -5.645752 9.588562 -8 9 C-9 8 -9 8 -9.3125 5.625 C-9 3 -9 3 -7.3125 1.1875 C-4.55188318 -0.23011404 -3.05832493 -0.54893012 0 0 Z " fill="#EEFAF1" transform="translate(235,168)"/>
<path d="M0 0 C1.32 0 2.64 0 4 0 C3.85795259 1.58367747 3.71119847 3.16693318 3.5625 4.75 C3.48128906 5.63171875 3.40007812 6.5134375 3.31640625 7.421875 C3.03761535 9.69350452 2.61209423 11.79851823 2 14 C3.65 14.33 5.3 14.66 7 15 C6.67 15.99 6.34 16.98 6 18 C3.03 17.67 0.06 17.34 -3 17 C-2.54775239 11.08507728 -1.8417395 5.64800112 0 0 Z " fill="#E6F9F0" transform="translate(305,166)"/>
<path d="M0 0 C1.32 0 2.64 0 4 0 C4 5.28 4 10.56 4 16 C2.35 16 0.7 16 -1 16 C-0.67 10.72 -0.34 5.44 0 0 Z " fill="#EEFAF0" transform="translate(279,164)"/>
<path d="M0 0 C2.4375 0.1875 2.4375 0.1875 3.4375 1.1875 C3.5625 4.6875 3.5625 4.6875 3.4375 8.1875 C2.4375 9.1875 2.4375 9.1875 0 9.375 C-2.5625 9.1875 -2.5625 9.1875 -4.5625 7.1875 C-4.8125 4.6875 -4.8125 4.6875 -4.5625 2.1875 C-2.5625 0.1875 -2.5625 0.1875 0 0 Z " fill="#62E2E6" transform="translate(249.5625,168.8125)"/>
</svg>
